<svg xmlns="http://www.w3.org/2000/svg" viewBox="0 0 1899 510"><title>Logo-White</title><path d="M89.6,220.9c.4-51.2,16.2-96.9,48.7-136.5,28.8-35,65.2-58.7,109.3-69.2,56.5-13.5,109.7-4.6,158.7,26.7,32.3,20.6,56.7,48.6,73.9,82.8a211.7,211.7,0,0,1,22.3,86.5,216.5,216.5,0,0,1-9.3,73.8,209.1,209.1,0,0,1-56.4,91.5c-31.8,30.1-69.4,49-112.9,54.6-60.3,7.9-114-8.2-160.5-47.5-28-23.8-48-53.3-60.7-87.7A212.5,212.5,0,0,1,89.6,220.9Zm11,0a198.1,198.1,0,0,0,7.4,55c10,36.7,28.7,68.3,56.4,94.4s57.9,41.6,93.9,49a186.2,186.2,0,0,0,79-.7c38.2-8.6,70.7-27.3,97.7-55.4A198.1,198.1,0,0,0,472.2,309c19.4-41.9,24.3-85.5,15-130.6-8.9-43-29.5-79.6-62.2-108.9C380.9,29.9,329,13.4,270.2,21c-46.6,6.1-85.7,27.7-117.1,62.7C118.1,122.6,101.3,168.7,100.6,220.9Z" style="fill:#fff"/><path d="M228.7,500.9l-11.3-10.1c19.9-18.9,41.3-34.9,66.4-45.6l-.2-1.1c-2.1-.3-4.2-.8-6.3-1-11.1-.7-20.6,3.5-29.5,9.5s-15.1,10.9-23,15.8a94.2,94.2,0,0,1-42.9,14.2c-12.5,1-24.2-1.5-35.5-6.5A87.8,87.8,0,0,1,121,459.5l-2-2.1-.2-.3c5.4,2,11,4.5,16.8,6.1,18.7,5.2,36.9,3.4,54.7-4.1,14.1-6,28.2-12,42.6-17.1,19.6-6.9,39.7-7.3,59.9-1.6,2.2.6,5,0,7.3-.6a99.2,99.2,0,0,1,59.3,2.7c12,4.2,23.7,9.1,35.3,14.2,14.2,6.3,28.8,10.5,44.5,9.3,11.6-.9,22.7-3.6,32.8-9.6l.6.8c-4.8,3.9-9.4,8.1-14.6,11.4-9.9,6.4-20.6,11.4-32.5,13.3s-21.4.8-31.9-1.8c-17.3-4.2-31.8-13.6-45.8-24.1-7.3-5.4-14.9-10.6-24.2-12-4.9-.8-10-.3-15.1-.3-.5,0-.9.5-2.2,1.2,12.8,5.7,24.7,11.9,35.5,20s20.9,16.5,31.8,25.1c-3,3.2-4.8,5.8-9.2,6s-9-1.9-12.7-5.6c-14.7-14.9-30.1-29-48.5-39.4-5.6-3.1-10.1-3.2-15.7,0-14.6,8.4-27.5,18.9-39.5,30.6C241.5,487.8,235.3,494.3,228.7,500.9Z" style="fill:#fff"/><path d="M23.9,337.1c4.6,5.5,8.8,11.4,13.8,16.5,8.3,8.4,18.6,13.8,29,19.1s22.9,11.4,34,17.7c6,3.4,11.2,8.2,16.8,12.3,2.3,1.7,4.8,3.3,7.3,4.9a26.5,26.5,0,0,0,3,1.1l.5-.7-2-2.2c-7.5-7.2-14.7-14.5-19.6-23.9s-6.5-17.1-8.2-26.1c-2.5-13-5-26-7.6-39a34.5,34.5,0,0,0-1.8-5.1l.6-.4c2.7,3.3,5.3,6.7,7.9,10.1,10.6,13.7,17.9,29.1,23.4,45.6a275.6,275.6,0,0,0,13.6,33.9c3.3,6.8,8.8,12.5,13.4,18.7.5.7,1.1,1.2,2.2,2.4l-10.8-2.5c-10.3-1.9-20.5-4-30.7-5.7-23.3-3.7-41.9-15.8-58-32.3-11.4-11.7-20.5-24.9-25.4-40.7-.4-1.3-.7-2.7-1.1-4.1Z" style="fill:#fff"/><path d="M440.7,422c3.2-3.7,6.4-7.1,9.3-10.8,7.5-9.9,11.9-21.5,16.1-33s8.6-24.1,13.8-35.7,13.6-21.8,21.6-31.9c-1.6,6.3-3.5,12.6-4.8,18.9-1.7,8.3-3.2,16.7-4.3,25.1-2.8,20.2-11.8,37-27.2,50.3-1,.9-1.9,2.1-2.9,3.1l.6.8a14.3,14.3,0,0,0,3.4-1.4c4.9-3.5,9.7-7,14.4-10.6,10.6-8.3,22.7-14.1,34.8-19.9s23-11.1,33.1-19.3a67.9,67.9,0,0,0,17.5-20.9l.6.2c-1.6,4.5-2.9,9-4.9,13.3-7.5,16.9-19.4,30.3-33.5,42-10.9,9-22.8,16.1-36.7,19.3-10.7,2.5-21.6,4.3-32.3,6.5L443,421.5Z" style="fill:#fff"/><path d="M5,260.3c2.9,13.4,10.8,23.9,19.8,33.7,6.2,6.7,12.7,13.2,19.2,19.8,8.2,8.3,14.9,17.8,21.1,27.6,1.6,2.5,3.5,4.7,5.3,7a13.7,13.7,0,0,0,2.3,1.9l.9-.6a31.1,31.1,0,0,0-2-4.1c-6.3-10-8.9-21-10-32.7s1.7-23,4-34.3c1.8-8.5,3.4-16.9,2.7-25.5a2.1,2.1,0,0,1,.1-1.1h.8c1.7,6.1,3.7,12.1,5.2,18.3,3.6,15.7,4.5,31.8,6,47.9,1.2,13.1,2.3,26.2,6,38.9,1.6,5.4,4.5,10.4,6.8,15.5l1.5,3.5c-20.8-14.9-43.2-26.1-61.2-43.7C19.4,318.5,9,302.6,6.1,282.8,5,275.4,4.5,268,3.8,260.5Z" style="fill:#fff"/><path d="M130.4,369.9c7.5,6.4,15.2,12.7,22.6,19.3,9.6,8.8,18.9,17.9,28.3,26.8s23.9,15.7,38,19.2a17,17,0,0,1,5.8,2.1,41.7,41.7,0,0,0-7.1.8c-9.9,2.3-19.8,4.8-29.7,7.3-16.7,4.2-33.5,7.2-50.7,5.7s-34-9.1-48.1-20.4a89.3,89.3,0,0,1-20.3-22.8c3.5,2.7,6.5,5.3,9.8,7.5,10.4,7,22.2,10.4,34.5,11.9,9.6,1.2,19.2,1.9,28.8,2.7,13.2,1,26.4,1.9,39.3,5.2,2.8.7,5.7.6,8.6.9l.5-1.2a11.6,11.6,0,0,0-2.7-1.8c-3.8-1.1-7.8-1.9-11.5-3.3-11.7-4.2-20.3-12.3-26.4-22.9s-11-20.3-16.5-30.4c-1.2-2.1-2.5-4-3.8-6.1Z" style="fill:#fff"/><path d="M586.9,260.6c-.8,7.5-1.1,15-2.2,22.3-3.8,24.1-17.5,42.3-36,56.7-13.2,10.4-27.6,19.2-41.4,28.7L496,375.9c1.4-2.8,2.4-5.1,3.7-7.3,5.2-9.4,7.1-19.8,8.4-30.3,2.1-17.4,3.2-34.9,5.6-52.3,1.5-10.6,4.7-20.9,7.1-31.3a9.3,9.3,0,0,1,1-2h.7c0,3.8-.4,7.7.1,11.4,1.5,9.3,3.5,18.4,5.1,27.6,3.5,19.2,1.4,37.4-8.9,54.3a39.7,39.7,0,0,0-1.7,3.6l.7.7a10.6,10.6,0,0,0,2.6-2,82,82,0,0,0,7.1-9.6c7-11.8,16.2-21.8,25.7-31.5,7.2-7.4,14.2-15.1,20.9-23a54.9,54.9,0,0,0,11.6-23.7Z" style="fill:#fff"/><path d="M520.6,408.5A74.3,74.3,0,0,1,504.4,428c-11.7,10.1-24.8,17.6-40,21.2-11.6,2.7-23.3,2.7-35.2,1.3-17.9-2.1-35.2-7.5-52.7-11.7-3.5-.8-7.2-1.1-11-2.1l5.7-1.5A88,88,0,0,0,414.8,411c10.1-10.2,20.9-19.7,31.5-29.4,4-3.6,8.4-6.8,12.6-10.1a6.3,6.3,0,0,1,1.8-.8C453,384.5,446,398,438,410.9s-18,18.5-31.4,21.2a41.6,41.6,0,0,0-5,1.6c-.5.2-.9.9-1.3,1.3s1.1,1,1.6.9a54.3,54.3,0,0,0,8.1-1c12.2-3,24.6-4,37.1-4.8,14.5-.8,29.1-1.6,43.2-5.3,10.7-2.8,20.6-7.4,28.8-15Z" style="fill:#fff"/><path d="M42.5,280.6a7.4,7.4,0,0,0,.1-2.1c-5.5-18.5-1.2-35.7,7-52.3,3.9-7.9,8.9-15.4,13.1-23.2,3-5.7,5.6-11.7,8.2-17.2l.2,1.2a153.9,153.9,0,0,1-4.8,38.8c-3.7,15.6-8.1,31-12.7,46.4a78.5,78.5,0,0,0-2.1,33c.1,1,.2,2.1.3,2.9-4.7-6.3-9.3-12.7-14.1-18.9-6.1-7.9-12.4-15.6-18.3-23.6-7.3-9.9-10.2-21.5-12.2-33.3a211.8,211.8,0,0,1-2.8-27.5c-.4-10.2,2.5-19.9,4.8-29.7a23.1,23.1,0,0,1,1.2-2.7c0,4.1-.1,7.4,0,10.8.6,11.7,4.8,22.4,9.3,33s9.2,20.7,13,31.4c2.6,7.5,3.6,15.5,5.4,23.3.6,2.5,1.3,4.9,2.1,7.3s.9,1.8,1.3,2.7Z" style="fill:#fff"/><path d="M580.9,173.3c2.4,9,4.9,18.5,5.4,28.4a131.3,131.3,0,0,1-8.1,50.5c-2.7,7.3-7.3,14-11.9,20.4-7.4,10.2-15.5,19.9-23.3,29.8a66.9,66.9,0,0,0-3.9,6.4c.3-5,.7-9.3.9-13.6.5-8.8-1.2-17.4-3.7-25.8-4-13.3-8-26.5-11.2-40s-5.4-27.5-5.5-41.6c0-.8.1-1.6.1-2.4l.7-.7c2.1,12.1,9.7,21.1,15.3,31.1s11.6,22.6,13.8,35.3a62.6,62.6,0,0,1-.5,24.4,12.7,12.7,0,0,0-.2,2.8l1,.4a15.4,15.4,0,0,0,1.7-3.4c1.4-5.5,2.7-11,3.7-16.5,2-11.4,6.4-21.9,11.2-32.3s10.4-21.7,12.5-33.6C580.1,186.3,580.3,179.6,580.9,173.3Z" style="fill:#fff"/><path d="M38.3,202c.4-2.5,1-5.1,1.4-7.6,1.6-12.3,7.5-22.6,15.7-31.5,6.5-7,13.6-13.5,20.3-20.3,4-4,7.8-8.1,11.5-12-.1.4-.3,1.5-.5,2.5s-.4,2.3-.7,3.4c-3.2,14.9-10.3,27.9-18.9,40.3-7.2,10.4-14.6,20.8-21,31.7-3.8,6.4-5.8,13.8-8.6,20.7a10.4,10.4,0,0,1-.5,1.2c-1.3-5.2-2.1-10.3-3.7-15.1-3.6-11.3-7.9-22.4-11.4-33.8-8.8-28.6-3.5-55.1,12.9-79.7,1.3-1.8,2.6-3.7,4.1-5.4-1,3.3-2.1,6.5-3,9.8-1.9,7.7-1.8,15.5-1.1,23.3,1.1,12,3,24,3.7,36,.4,7.9-.8,15.8-1.3,23.7-.2,3.5-.6,7-.8,10.5a5.5,5.5,0,0,0,.7,2.4Z" style="fill:#fff"/><path d="M552.3,96.7l3.4,5c8.4,12.5,14.4,26.1,16.5,41.2s.4,27-3.8,40.1-8,23.4-11.9,35.2c-1,3.2-1.4,6.6-2.1,10-.1.6-.3,1.2-.4,1.6-2.4-5.9-4-12.1-7.2-17.5-6.6-11.1-13.9-21.9-21.2-32.6s-15.4-23.3-19.2-37c-1.1-4.1-2.1-8.2-2.9-12.4,8.1,11.1,19.4,18.9,28.6,28.9,7.5,8.3,14.2,16.9,17.3,27.8,1.2,4.3,1.8,8.8,2.7,13.2a5.5,5.5,0,0,0,1.4,1.7,6,6,0,0,0,.9-2.2c-.8-10.4-1.9-20.8-2.3-31.2-.2-5.7.6-11.5,1.2-17.2,1.4-12.3,3.9-24.5,2.7-36.9-.4-4.8-1.9-9.5-3-14.2-.2-1.1-.8-2.1-1.1-3.2Z" style="fill:#fff"/><path d="M46.7,159.9c-.5-10.7-.8-21.8-1.6-32.8a107,107,0,0,1,1.5-27.7c3.9-21.1,16.9-34.7,36.1-43.2L80.8,58a18.9,18.9,0,0,0-2,2c-6.9,7.6-10.5,16.7-12.6,26.5-3.2,15.1-6.2,30.3-12,44.8a18.6,18.6,0,0,0-.7,3.4l.8.4a8.7,8.7,0,0,0,1.6-1.7c6.3-13.4,16.9-22.8,28.7-31,8.1-5.6,16.3-11.2,22.5-19.1,1.9-2.4,3.5-5.1,5.9-7.5-.9,3.5-1.5,7.1-2.6,10.5-3.7,11.6-10.6,21.4-19.4,29.6s-17.7,15.4-26.6,22.9a76,76,0,0,0-17.3,20.6C46.9,159.8,46.5,160.1,46.7,159.9Z" style="fill:#fff"/><path d="M478,75.4c7.8,14.7,22,22.3,34.4,31.7,9.2,7,17,15.2,22.1,25.7a10.1,10.1,0,0,0,1.9,2.3l.9-.5a37.4,37.4,0,0,0-1.2-4.8c-5.1-13-8.1-26.6-10.8-40.3s-6.8-24.5-17-33.2c6.7,2.2,12.3,6.2,17.5,10.7,13.3,11.6,19.2,26.7,19.6,43.8.3,12-.7,24-1.1,36-.1,4.4,0,8.9,0,13.1-2.3-3.2-4.6-6.8-7.2-10.2-5.8-7.6-13.5-13.2-21-19.1-10.3-8.1-19.8-17-27.4-27.8A65.3,65.3,0,0,1,478,77,8.5,8.5,0,0,1,478,75.4Z" style="fill:#fff"/><path d="M71.9,101.6c1.2-3.6,2.2-6.7,3.3-9.8,2.1-6.5,4-13.2,6.5-19.6C87,59,96.5,49.1,108.6,42.1c9.2-5.3,19.3-9.2,29-13.8h.9a76.8,76.8,0,0,0-5.6,6c-7,9-14.4,17.7-20.8,27.1a140.2,140.2,0,0,1-32,33.2C77.4,96.8,74.9,99.1,71.9,101.6Z" style="fill:#fff"/><path d="M518.5,101.2c-5.5-4.5-10.7-8.9-16.1-13.2a110.4,110.4,0,0,1-21.6-23.7C472,51.7,463.3,39.1,452.3,28l9.5,3.9c9.9,4.1,19.5,8.8,28,15.5S506.9,65,510.9,77C513.5,84.9,515.9,92.9,518.5,101.2Z" style="fill:#fff"/><path d="M482.5,221.1c-.5,49.4-16.3,93.2-49.2,130.3-26.3,29.7-58.8,49.4-97.7,57.8-52.6,11.2-101.1,1.2-145.2-29.6-26-18.2-45.7-41.9-59.9-70.2a189.5,189.5,0,0,1-20.3-77c-2.6-54.9,14-103.2,50.9-143.8,26.9-29.5,60.1-48.7,99.3-56.2,55.7-10.7,106.1,1.8,150.3,37.1,32.9,26.2,54.3,60.3,65.2,100.9A192.8,192.8,0,0,1,482.5,221.1Zm-10,3.8c-.1-16.6-1.3-29.3-3.9-41.8-8-38.8-26.2-72.1-55.3-98.9-36-33-78.5-48.7-127.5-46a162.5,162.5,0,0,0-65.2,17.3c-37.2,18.6-64.5,47-82.4,84.4q-24.7,51.6-16.4,108.4c6.7,45.6,27,84.3,62.3,114.2,44.8,37.9,96.4,50.4,153.6,36.8,34-8,62.7-26,86.1-51.8C456.3,311.7,471.9,269.3,472.5,224.9Z" style="fill:#fff"/><path d="M154.4,225.9c-2-49.4,16.8-89.5,54.8-120.5,11.1-9,23.9-15.5,37.1-21.1,9.7-4.1,19.9-5.7,30.1-7.3,27.1-4.4,53.1.2,77.8,11.7s43.9,28.2,59.2,50.2c8.2,11.7,12.8,24.9,17.5,38.2s5.4,27.3,6.9,41.1c1.1,10.3-1.3,20.4-2.7,30.5a113.6,113.6,0,0,1-15.3,43.1c-6.3,10.6-12.8,21.2-21.4,30.3-11.2,11.8-24.1,21-38.2,28.8-15.9,8.7-33,12.2-50.7,14.4a141.1,141.1,0,0,1-70.4-10.9c-15.5-7-28.9-17.3-41.2-28.8a127.2,127.2,0,0,1-36.3-59.2c-2.9-10.1-5-20.5-7.1-30.8C153.9,232.5,154.4,229.1,154.4,225.9Zm161.9-8.8a18.4,18.4,0,0,0-1.6-1c-3.2-1.3-5.7-2.9-4.3-7.1a2.7,2.7,0,0,0-1.5-2c-4.2-1.3-6.4-4-6.6-8.5a3,3,0,0,0-1.5-2.5c-2.7-1.1-5.5-1.8-8.3-2.7s-3.7,0-3.8,2.4c-.1,4.7-2.3,8.1-5.8,11-1.5,1.2-2.6,3-4.1,4.2s-2.9,4.6-2.6,7.6a10.7,10.7,0,0,1-.2,4c-.8,2.6-2.3,2.9-4.2,1.1a53.4,53.4,0,0,0-4.4-3.9c-1.2-1-2.6-1-2.5,1s-1.2,4.5-3.5,5.8-3.1,2.2-2.3,4.7a8.1,8.1,0,0,0,2.2.1c2.8-.2,5.6-.7,8.4-.8s4.6.9,5.2,4,1.7,4.3,2.8,6.8a88.9,88.9,0,0,1,6.4-6.2c8.7-7.3,5-6.8,14.2-.7l.3.5c-.4,1.1-1,2.3-1.4,3.6l-1.8,7.6a100.3,100.3,0,0,1-2.5,9.8c-1.1,3.1-3.7,4.5-6.9,4.5-1.5,0-3-.3-4.4-.3s-3.4-1.1-3-3.5-2.3-4.9-3.9-7.1a2.7,2.7,0,0,0-2,.4l-14.6,14.9a28.6,28.6,0,0,0,3.2,3,79.4,79.4,0,0,0,22.4,11.1,13.7,13.7,0,0,0,13.1-1.9,94.6,94.6,0,0,1,9.2-5.7c3-1.7,6-2.2,8.9.5a2.7,2.7,0,0,0,2.5.8,25.8,25.8,0,0,0,12-9.1c-1.2-2-4.3-3.1-2.1-5.8s3.1-3.4,4.7-5.1c-2.2-2.9-2.9-3.1-5.9-1.1s-4.4,3.2-6.7,4.8-3.6,3.4-3.9,6.2c-.1.9-.9,2.5-1.4,2.5-2.7.1-5.7.4-7.9-.8s-1-4.2-.4-6.4,1.4-3.9,2-5.8,1.1-3.4,1.6-5.2l-3.5-1.3a75.9,75.9,0,0,1-2,8.2c-.4,1.1-1.6,1.9-2.4,2.9-1-1.2-2.9-2.5-2.9-3.6.3-6.9,2.3-13.2,8-17.5,1.4-1,3.5-1.1,5.2-1.6l.3.8c7.2-6.2,7.5-7.7,2.4-13.9C315.1,219.7,315.6,218.6,316.3,217.1Zm113.3,10a9.6,9.6,0,0,0-1.5-.3c-2.6-.1-5.1-.3-7.7-.3s-6.1-.7-7.5.7-.9,4.9-1.1,7.5c-1.6,18.2-8.3,34.7-17.4,50.2-4,6.7-9.6,12.5-14.6,18.6-1.2,1.5-1.3,2.5-.1,3.7l10.7,11.4a85,85,0,0,0,18.3-21.8C421.3,275.4,429.6,252.7,429.6,227.1ZM162.1,214.8h17.3a171.9,171.9,0,0,1,9.4-42.5c5.1-14.1,14.6-25.1,24.7-35.9l-12.1-13.3C182.9,135,156.4,196.7,162.1,214.8Zm268.3,3.1a7.1,7.1,0,0,0,.2-2.5c-1.6-10.4-2.9-20.9-5-31.2-4.3-20.3-15.7-37-27.7-53.4l-.6-.6-4.4-3.7-13.5,12.7c2.7,1.1,4.7,2.4,6.8,2.6,5,.5,7,2.8,8.3,8,2.5,10.3,6.4,20.2,10.2,30.2,2.8,7.6,5.6,15.2,5.9,23.4a99.1,99.1,0,0,0,1.5,12.2c.2.9,1.5,2.2,2.3,2.2C419.6,218,424.8,217.9,430.4,217.9Zm-269.2,4.8c1.6,35.5,12.1,67,37.1,93.3l12.1-12.9c-5.5-8.3-10.8-16.2-16.2-24.1a4.1,4.1,0,0,0-2.9-1.3l-9.9-.7a3.9,3.9,0,0,1-2.5-1.2c-2.8-2.8-2.1-5.4,1.7-7.2l7.3-3.4c-4.7-12.4-7.8-24.4-7.7-37.1a14,14,0,0,0-.7-4,2.2,2.2,0,0,0-1.6-1.4Zm57.6-92.1,11.7-8.8a99.9,99.9,0,0,1,39.6-17.4c6.7-1.4,13.5-2.1,20.3-3.1,1.9-.2,2.6-1,2.5-3q-.1-6.6,0-13.2c.1-2-.7-2.5-2.6-2.2s-4.8.7-7.2,1.1c-7.4,1.1-15,1.5-22.2,3.4a127.3,127.3,0,0,0-37.7,17.1c-5.7,3.7-11,8-16.9,12.4Zm70.5,209.8c-28.2-2-52.5-12.4-72-31.2l-13.2,11.7c14.5,19.3,58.6,37.3,85.2,37.6V340.4Zm9.2,18c20.3,4.5,74.6-17.6,85.5-34.7l-11.1-11.8-19.7,12.6a3.1,3.1,0,0,0-1.4,2c.1,3.3-2,4.7-4.6,6a44,44,0,0,0-5.1,2.9c-2.1,1.3-3.8,1.1-5.2-.9l-1.3-1.5a98.3,98.3,0,0,1-10.6,3.3c-7.8,1.5-15.5,4.1-23.6,3.7-1.5-.1-2.9.2-2.9,2.4C298.6,347.6,298.5,352.9,298.5,358.4ZM231.9,156.6,219,142.5a90.3,90.3,0,0,0-23.5,36.8c-3.5,10.3-6.9,20.6-8.1,31.4-.4,3.8.3,4.6,4,4.7l12-.2c2.1-.1,3.1-.8,3.3-3.1a82.1,82.1,0,0,1,6.4-25.8C217.5,175.6,221.8,164.7,231.9,156.6ZM373,299c.8-.7,1.7-1.3,2.4-2a88,88,0,0,0,6.4-7.3c11.7-16.8,18-35.8,22.1-55.7.5-2.3.1-4.9.1-7.6H384.5a68.6,68.6,0,0,1-6.5,30.2c-2.6,5.4-6.2,10.3-9.1,15.6a13.1,13.1,0,0,0-1.8,6c.2,4.4.9,8.7,1.5,13.1S370,297.2,373,299Zm-134.6-7.5a3.6,3.6,0,0,0-.2,1c-.6,6.7-2.3,7.9-8.7,6.4-3.6-.8-5.8.6-7.3,4.3,18.5,18.5,41.1,27.5,67.6,29.6,0-6.5.1-12.5-.1-18.4,0-.7-1.5-1.8-2.5-2.1-3.4-.8-6.9-1.1-10.3-2-9.9-2.6-19.8-5.3-28.5-11.2C245,296.8,241.8,294.1,238.4,291.5ZM224.2,136.3,237,149.9c9.8-5.5,19.4-10.9,29.1-15.9,3.3-1.7,7.2-2.5,10.9-3.2s8.7-.7,13.1-1.3c.8-.1,2.1-1,2.2-1.6.2-5.2.2-10.5.2-15.7,0-1.8-.9-2.7-2.8-2.4-4.1.5-8.3.8-12.4,1.5-13.3,2.1-25.5,7.2-37,13.9C234.8,128.5,229.7,132.5,224.2,136.3Zm162.3-16c-17.5-17.6-38.8-27.7-62.2-33.8-7.4-1.9-14.9-3.2-22.7-2.8V95.1c2.3.1,4.7-.4,5.6.5s.3,3.4.7,5,1.2,1.9,1.8,1.9c8.6.1,16.6,2.7,24.4,5.8,6.2,2.5,12.4,5.2,18.5,8.1,2.8,1.4,5.3,3.4,8.1,5s4.6,3.3,7.2,4.2,3.6,1.6,4.1,4.1,2.2,3.2,4.2,1.3C379.7,127.5,383.2,123.7,386.5,120.3ZM385,217.9h17.3c.7-.1,2-1.2,2-1.7-.4-5-.5-10-1.5-14.8a121.1,121.1,0,0,0-10.5-31.6c-1.4-2.7-2.8-4.3-5.8-4s-4.6-1.3-6.5-3.1a32.2,32.2,0,0,0-6.8-4.8,87.6,87.6,0,0,0-8.7-3.5l-4.2,4.6c1.9,1,3.4,1.5,4.7,2.3s5,3.3,4.9,6.5a11,11,0,0,0,5.9,10.4,7.1,7.1,0,0,1,2.3,1.9c.9,1.2,2.1,2.6,2.3,4.1C382,195.2,383.5,206.4,385,217.9ZM300.9,109.8v13.9c0,5.8.1,5.6,5.7,6.7s13.6,1.5,19.9,4.7a8.2,8.2,0,0,0,2.5.4c-1.3-3.9-.9-5.8,1.1-6.3s6.8,1.2,7.7,3.9.8,2.8-5,4.4c1.7,1,3.1,2.2,5.3.9s5.4-1.8,8.6,1.4c-1.7,4.6-1.7,4.6,2.4,7.7l3.3,2.3c3.6,2.4,5.2,1.9,7-1.8,1-2.1-1.1-5.8-3.3-6.5a3.7,3.7,0,0,1-2.4-2c-1.3-3.6-2.6-7.3-3.6-11.1s-2.2-5-5.5-6.2c-5.1-1.9-9.7-4.9-14.8-6.9A73.3,73.3,0,0,0,300.9,109.8ZM214.3,214.9c5.4,0,10.7.1,16-.1.6,0,1.4-1.2,1.5-2,1.8-12.3,5.6-23.8,14.3-33.3,3.3-3.5,3.1-3.8-.1-7.3l-9-9.8C223.9,174.7,213.5,198.7,214.3,214.9Zm28.2-58.4c2.9,3.1,5.3,6.1,8.2,8.8,5,4.8,4,5.1,10,.7s10.9-6.9,17.3-8.2c4-.8,7.9-1.5,11.8-2.5.9-.2,2.2-1,2.2-1.6.2-5.4.1-10.9.1-16.6C273.6,138.5,256.9,143.8,242.5,156.5Zm58.1-11h.1v6.7c-.1,2.2.7,3.4,3.1,3.6a49.7,49.7,0,0,1,22.3,8.1c3.1,2,6.3,3.9,9.3,6.1,1.4,1,2.4,1,3.5-.2,3-3.2,6-6.4,8.8-9.8a2.7,2.7,0,0,0-.2-2.6c-2.5-2.7-5-5.6-8.1-7.6-11.1-7.2-23.6-11-36.7-12.7-1.5-.2-2.1.4-2.1,1.9S300.6,143.3,300.6,145.5ZM289.7,305.1c1.1-5.9,1.2-5.9-2.5-9.8-1.6-1.9-2.9-4.1-2-6.4s-.2-3.9-2.7-4.3-3.2-.9-4.8-1.2c-6.7-1.6-12.8-4.2-17.8-9.1a25.2,25.2,0,0,0-5.1-3.4c-.6-.3-2-.5-2.4-.1-3.1,3.2-6.3,6.4-9.2,9.8s-1.4,4.2,1.1,6,7.8,5.6,11.9,8.1C266.4,300.9,278.2,302.3,289.7,305.1ZM357.6,275c.6-.5,1-.6,1.2-.9,2.8-4.1,5.8-8.1,8.3-12.3,5.9-9.9,8.5-20.9,10.1-32.2.1-1.1-.7-3.4-1.1-3.4-4.2-.3-8.3-.2-12.4-.2a10.4,10.4,0,0,1-.4,1l5.9,4.8c.7.5,1.5,1.2,1.6,1.8.3,3.2-3,6.7-6.3,7-5.2.6-9.8,2.3-11.5,8.2-.7,2.3-2.4,4.2-3.4,6.4a29.6,29.6,0,0,0-1.4,5.1c-.6,2.2-.5,4.8-1.6,6.6s-.9,3.2,1,4.5l5.4-3.6c1.6-1,2.8-1,3.2,1.4S357.1,272.8,357.6,275ZM209.2,244.1c-.5-3.4-1-6.6-1.4-9.8s-.6-6.2-1.1-9.3a3.2,3.2,0,0,0-1.9-1.9c-5.1-.3-10.2-.3-15.3-.5-1.7,0-2.5.7-2.4,2.5.3,3.3.1,6.7.8,9.9,1.5,7.9,3.3,15.7,5.2,23.4a4.5,4.5,0,0,0,2.9,3.1c2.4.5,6.6-3.5,7-6l1.8-10.8Zm82.3-59.5V162.2c-12.4.4-22.6,5.4-32.1,13.2l16.5,17.9C280.2,188.4,284.4,183.7,291.5,184.6Zm6.3,148a33.2,33.2,0,0,0,4.5,0c6.3-1,12.7-2.1,19-3.3a51.1,51.1,0,0,0,7.6-2.3c1.6-.5,2.2-1.9.8-3.1a22.4,22.4,0,0,0-6.6-4.4c-3.8-1.3-7.1-2.8-8.9-6.9a4,4,0,0,0-2.8-1.7,68.7,68.7,0,0,0-10.1,1.7,3.1,3.1,0,0,0-2.2,2.1C298.5,320.5,298.2,326.4,297.8,332.6Zm2.6-148.3c2.5.1,3.8-.6,4.7-2.6a17.5,17.5,0,0,1,3.3-4.4,3.5,3.5,0,0,1,2.9-.9c.4,0,.7,1.5,1,2.4s.5,4,1.7,5c4,3.5,8.4,3,12.2-.8a39.1,39.1,0,0,0,4.5-5.4,3,3,0,0,0-.2-2.8c-2.6-2.1-5.1-4.5-8.1-5.6-6.9-2.7-14-4.7-21.4-7.1C299.5,169.8,299.7,176.9,300.4,184.3Zm53.7-19.2L344,176.2a1.7,1.7,0,0,0-.3,1.5c1.7,2.4,3.1,6,5.4,6.6s3.4,2.9,4.4,5,2.1,3.5,5.2,2.3,5.3-.1,5.9,3.2a3,3,0,0,0,2.2,1.6c1.5-.1,3.8-.3,4.4-1.2s1.5-4.3-.6-6.2-3.9-3-5.6-4.6-4.4-3.6-5.6-5.9C357.3,174.4,356,169.9,354.1,165.1ZM230,235c-.8,6.4-1.6,12-2.3,18.1.6.4,1.9,1,3.1,1.8,3.7,2.3,4.2,3.6,2.8,7.8-.5,1.6-1,3.3-1.4,5-.9,4.9,0,6.3,4.8,8,2.9-3.2,5.9-6.5,8.9-9.6,1.4-1.3,1.3-2.4.4-4-3.6-6-7-12.2-10.3-18.3-.8-1.5-1.3-3.1-3.5-2.9-.4,0-1.1-.9-1.4-1.5S230.5,237,230,235Zm22.4,25.2c4.6-4.8,8.5-9,12.4-13.3a20.1,20.1,0,0,0,1.7-2.9c-1-.1-2.2-.7-3.1-.4-3.8,1.4-6.1-.7-8.7-2.9a46.9,46.9,0,0,0-9.2-6c-2.2-1.1-3.6-.4-3.8,2.5C241.1,246.7,247.8,252.6,252.4,260.2Zm-9.8-60.8c4.2-1.7,7.8-2.9,11.2-4.5s3.1-.4,4.2,1.4c2.2,3.6,2.4,3.6,6.3,2.1l3.5-1.9-14.2-15.8C249.3,186.6,244.1,191.4,242.6,199.4Zm-23.8,49.2c4.7-4.3,4.7-4.3,2.5-8.9-.8-1.8-1.1-3.2.7-4.6a10,10,0,0,0,2-2.9l5-8.5-13-.6c-1.6-.1-2.4.7-2.2,2.4.4,3.8.4,7.8,1.2,11.6S217.4,244.3,218.8,248.6Zm135.7,43.3a8.2,8.2,0,0,0-.6,2.5c.5,4.5-1.6,8.3-3.4,12.2s-2.1,5.3,2,9.6l14-11.5Zm10.4-74.8c2.5.2,5,.6,7.5.7,5,.1,5.3-.2,4.7-5s-1.3-6.5-2.1-10.3c-2.9,2.4-5,4.4-7.3,6S363.2,213.1,364.9,217.1ZM204.7,281.2l-1.2,1.2L215.9,298c2.2-2.6,3.9-4.4,6-6.8Zm94.8,23.9,12.7-1.9c-1.3-1.7-2.1-3.6-3-3.7-3.4,0-6.9.5-10.6.8C298.9,302,299.2,303.4,299.5,305.1Zm42.9-115.9.6-.8-5.1-6.4-4.7,5.3Zm-99.4,34-.3.6a4.7,4.7,0,0,0-1.7.1c-.9.3-1.8.8-2.7,1.2a26.5,26.5,0,0,0,2.6,2.1,2,2,0,0,0,1.7,0l4.2-2Zm89.1,51.2,7.9,2.2.5-.7c-1.5-1.6-3-3.2-4.6-5.1Z" style="fill:#fff"/><path d="M295.5,43.1c3.3.4,6.7.6,10,1.2.6.1,1.2,1.4,1.5,2.2,1.8,6.1,3.5,12.2,5.4,18.9,1.3-2,2.3-3.6,3.2-5.2,2.3-4,4.5-8,6.9-11.9.4-.7,1.2-1.7,1.7-1.6a39.8,39.8,0,0,1,10.1,1.8l-1.3.7c-1,.7-2.5,1.5-2.6,2.4-1.1,6.9-2.1,13.9-2.7,20.9-.1,1.3,1.7,2.7,2.9,4.5l-14.1-1.7a2.7,2.7,0,0,0,.2-.9c3.6-.1,4.2-2.4,4.5-5.4.5-5.8,1.4-11.6,1.6-17.7L309.5,74.5l-1,.2L301,49.3h-.5c-.8,6.4-1.7,12.8-2.1,19.3-.1,1.5,1.9,3,3.1,4.8l-9.6-1.1v-.7a4.3,4.3,0,0,1,1.3-.5c2.1,0,2.9-1.2,3.1-2.9.9-6.7,1.5-13.3,2.5-20C299.2,45.2,296.7,44.9,295.5,43.1Z" style="fill:#fff"/><path d="M336.6,369.1l-4.2,26.3-1,.2-15.8-20.7-.5.2c1.6,6.3,3,12.6,5,18.8.4,1.3,2.9,2,4.7,3.2l-10.2,2.6c.7-1,.9-1.5,1.2-1.6,2.2-.8,2.4-2.3,1.9-4.3-1.4-5.5-2.6-11-4-16.5s-1.2-4.6-5.5-6.3c3.3-.9,6.7-1.8,10.1-2.5.5-.1,1.4,1,1.9,1.6,3.9,5.1,7.7,10.1,11.9,15.8.9-5.4,1.7-10.2,2.4-15,.9-6.8.9-6.8,7.6-8.5l4-.8c.1.4.2.7.1.7-3,1.5-2.8,3.9-2,6.7,1.5,5.1,2.6,10.2,3.9,15.3s1.1,4.4,5.2,5.7l-13.8,3.5-.8-.8c4.7-1.5,3.3-4.5,2.6-7.4-1.5-5.4-2.8-10.9-4.1-16.3Z" style="fill:#fff"/><path d="M251.5,69.9c.5,2.7,1,5.4,1.4,8.1a1.7,1.7,0,0,1-1,1.2q-11.1,4.3-22.2,8.4c-.1.1-.3-.1-1.1-.3,4.9-2.2,2.6-5.2,1.5-8.1-1.7-4.4-3.4-8.8-5-13.1-1.1-2.8-1.5-6.3-6.4-4.5l.2-1.2,23.3-9c1.1,2.8,2.2,5.5,3.2,8.2l-1.2,1a14.5,14.5,0,0,0-1.9-2.9c-2.5-2.7-9.3-2.5-11.7.3a2.2,2.2,0,0,0-.2,1.8l3.4,9c3.7-1,3.9-1.3,5.4-8.4L244.5,74l-.7.8c-2.4-2.9-4.4-6.7-9.2-3.8,1.2,3.1,2.4,6.4,3.8,9.6a3.4,3.4,0,0,0,2.8,1c4.8-1.3,8.2-4.2,8.8-9.4a15.5,15.5,0,0,1,.6-2.3Z" style="fill:#fff"/><path d="M391.9,94.3c2.8-4.4,5.3-8,7.5-11.9.4-.8-.1-2.2-.4-3.2s-.7-1.1-1.1-1.7l.6-.6,7.8,5,.2.8c-5.8-1.6-6.5,3.2-8.5,6.1-3.8,5.4-7.2,11.1-10.8,16.6h-1c-1.2-9.9-2.4-19.8-3.7-30.7-3.6,5.8-7,10.7-9.9,16-.6,1,.7,3,1.3,5.2l-8.4-5.4v-1c4.5,2.4,5.6-1,7.3-3.5,2.8-4.4,5.7-8.7,8.3-13.1a6.8,6.8,0,0,0,.7-3.8c0-1-.5-1.9-.2-3.3a82.7,82.7,0,0,1,6.9,4.6c.8.7,1,2.3,1.1,3.5.7,6.1,1.3,12.2,1.9,18.3C391.6,92.7,391.7,93.1,391.9,94.3Z" style="fill:#fff"/><path d="M283,386.1c-.1,3.5-.5,6.8-.3,10.2,0,.8,1.7,2.1,2.7,2.2,4.7.6,8.7-.8,11.2-5.2.4-.7,1-1.2,1.5-1.9l.8.4c-.6,2.6-1.2,5.3-2,7.9-.1.4-1.1.7-1.7.7l-23.1-.8c-.1,0-.2-.2-.3-.4s2.8-1.4,3.4-2.6.4-3,.4-4.5c.3-5.1.4-10.2.6-15.3s.1-4.2-4.2-6h25.6c-.2,3.4-.3,6.1-.4,8.9h-.7l-.8-1.8a9.3,9.3,0,0,0-10.8-5.7c-.6.2-1.4,1-1.4,1.5-.3,3.3-.4,6.6-.5,9.9,5.2,1.4,6-2.5,7.8-5.5v14.4l-.8.4C289,389.5,288.4,385.6,283,386.1Z" style="fill:#fff"/><path d="M364.3,58l8.4,3.3.3.9c-4.8-.7-5.1,2.8-6.2,5.5s-2.8,7.8-4.5,11.5c-2.8,6.2-7.8,7.9-14.3,5.1s-9.1-7.4-6.7-13.9c1.4-3.9,2.9-7.7,4.4-11.5s3-5.4-1.5-7.5l.9-.7,13.6,5.2.3,1.2c-5.3-2-5.8,1.8-6.9,4.7s-3.3,8.4-4.7,12.6.6,8.6,5.8,9.1a6.3,6.3,0,0,0,6.6-4A143.9,143.9,0,0,0,366,63.7C366.4,62.3,365,60.3,364.3,58Z" style="fill:#fff"/><path d="M202.6,70.6c4.5,7.2,8.5,13.7,12.6,20.1,1,1.6,2.4,2.7,4.4,1.4.4-.2.9-.1,1.7.5l-13.6,8.5c.9-2.3,2.1-3.7,1.9-5.1s-1.4-2.9-2.2-4.3c-3.5-5.5-6.9-11.1-10.8-17.2-1.5,2.1-3.2,3.6-3.7,5.5s.2,3.8.5,5.8l-.8.4L188,78.7l22.2-14c1.6,2.6,3.2,5,4.7,7.5l-.6.6c-1.7-1.1-3.3-2.6-5.2-3S205.1,70.3,202.6,70.6Z" style="fill:#fff"/><path d="M282,44.7l1.3,9-1.4,1a6.6,6.6,0,0,0-.8-2.1,27.1,27.1,0,0,0-4.1-4.2c-5.2-3.8-11-1.4-12,4.9a25.2,25.2,0,0,0,1.7,14.6c2.6,6.1,8.1,7.4,13.4,3.5,1.3-1,2.3-2.4,3.5-3.5a4.4,4.4,0,0,1,1.7-.7c-.1.6.1,1.3-.2,1.8-3.6,5.6-8.9,7.5-15.4,6.8a14.2,14.2,0,0,1-11.8-10c-3.6-12.6,5.2-22.4,18.2-20.4C277.7,45.7,279.6,45,282,44.7Z" style="fill:#fff"/><path d="M256.2,390.7c-5.3,5.5-12.6,5.7-18.8,1.3s-7.5-11.1-4.6-18.3a14.9,14.9,0,0,1,21.6-7.5l1,.7c3.3,2,3.3,2,6.8.6-.9,3.6-1.8,6.9-2.7,10.1h-.8c-.4-1-.7-2.1-1-3.1-1.2-3.4-2.6-6.6-6.4-7.9a5.7,5.7,0,0,0-7.1,1.8,23.6,23.6,0,0,0-5.4,16.9c.3,5.9,5.2,9,11,7.4a34.7,34.7,0,0,0,4.1-1.6A8.5,8.5,0,0,1,256.2,390.7Z" style="fill:#fff"/><path d="M307.3,267.7c-2.2,3.4-9,5.2-11.1,3.3s-1-3.3-.8-5,2-1.9,2.8-1.7C301.2,265.2,304.1,266.5,307.3,267.7Z" style="fill:#fff"/><path d="M280.7,227c1.7,1.9,3.5,3.1,4.1,4.7s-3.4,3.7-4.9,2.8-1.9-2.8-2.1-4.3S279.3,228.5,280.7,227Z" style="fill:#fff"/><path d="M293.2,224.2l-4.8,3.9c-.6-1.2-1.7-2.3-1.7-3.6s2-4.9,3.7-4.2S291.9,222.4,293.2,224.2Z" style="fill:#fff"/><path d="M327.2,99.2l-6-.7-9.1-1c-2.4-.2-4.3-2.5-4.4-5.3s1.9-3.4,3.9-3.3,6.9,0,10,.9S327.1,94.7,327.2,99.2Z" style="fill:#fff"/><path d="M367.6,112.5c2.2,1.7,4.4,3.2,6.2,4.9a3,3,0,0,1,.1,2.9,28.6,28.6,0,0,1-4.3,3.5,12.1,12.1,0,0,1-2-2.6C366.7,118.7,365.6,116.1,367.6,112.5Z" style="fill:#fff"/><path d="M312.5,118.5a9.9,9.9,0,0,1,1.7.2c1.8.5,4.3.1,4.4,3.2s-1.6,6.5-4.1,7.1h-.8c-1.7-2.6-3.7-5-4.7-7.8S310.2,118.4,312.5,118.5Z" style="fill:#fff"/><path d="M315.5,174.2l2.4-2.6c1.2,1.6,2.9,3.1,3.4,4.9s-1,3.2-3.1,3.2S315.5,178.2,315.5,174.2Z" style="fill:#fff"/><path d="M1436.4,254.9c0,10.9-.1,21.9,0,32.9.5,29.5,1.1,59,1.6,88.5.3,15.8.7,31.6.9,47.4.1,4.1,0,4.2-4,4.2h-31c-3.9,0-3.9-.1-4-3.8-.3-15.6-.6-31.3-.8-47-.5-31.3-.8-62.6-1.2-93.9-.3-22-.7-44-1-66-.2-11.1-.4-22.3-.7-33.4a13.1,13.1,0,0,0-.6-2.7,14.8,14.8,0,0,0-1,2.7q-7.3,30.9-14.5,61.8-20.7,88.7-41.4,177.4c-1.2,5.2.1,4.9-6,4.9s-12,0-18,0c-4.2,0-4.3,0-5.2-4.1-4.5-19-8.9-37.9-13.3-56.9q-18.3-79.5-36.8-159.1c-1.7-7.6-3.5-15.2-5.3-22.8a24.6,24.6,0,0,0-.7-2.9,14,14,0,0,0-.9-1.7,13.6,13.6,0,0,0-.4,1.7c-.1,4.7-.1,9.3-.1,14l-1.2,94.5c-.3,22.3-.7,44.6-1,66.9s-.7,44-1,66c-.1,4.3-.1,4.4-4.5,4.4h-31c-4.2,0-4.3,0-4.2-4.5.3-19.4.6-38.9,1-58.4s.7-38.6,1.1-58q.9-39.2,1.7-78.4c.2-9.6.2-19.3.3-29q.9-44.7,1.7-89.4c.2-7.8.2-15.6.3-23.5.1-4.8.1-4.9,5.2-4.9h38c4.4,0,4.4,0,5.4,4.5l22.2,102,33.3,153.2,3.6,16a10.6,10.6,0,0,0,.6,1.9,8,8,0,0,0,1.3-1.9c2.1-9.4,4.1-18.8,6.2-28.2l27.6-125.9,25.5-116.5c1.1-5.1,1.1-5.1,6-5.1h38c4.6,0,4.6,0,4.7,4.7q.6,43.2,1.3,86.4c.4,22.2.9,44.3,1.3,66.5.1,5.1,0,10.3,0,15.5Z" style="fill:#fff"/><path d="M1724,254.7q0-83.4.1-166.9c0-6.3-1-6,5.7-6s15.4.1,23-.1c3.1-.1,4.8.9,6,3.8,15,35.3,30,70.4,45.1,105.6q24.3,56.9,48.7,113.8c.4.9.7,1.8,1.2,2.7a3,3,0,0,0,1.1.7,2.9,2.9,0,0,0,.3-1V88.4c0-7-1-6.6,6.8-6.6h29.5c4.2,0,4.2.1,4.3,4.1V421.3c0,7.5.8,6.6-6.8,6.6s-13.3-.2-20,.1c-3.4.2-4.9-1.1-6.2-4.2q-21.7-52.1-43.7-103.9Q1793.3,259,1767.7,198c-.5-1-.9-2.1-1.5-3.1s-.7-.5-1-.7a2.9,2.9,0,0,0-.2.9v4.5q0,111-.1,222c0,7.2,1,6.3-6.3,6.3-9.9.1-19.7,0-29.5,0-5.6,0-5,.4-5-5.2-.1-18.5-.1-37-.1-55.5Z" style="fill:#fff"/><path d="M1535,210.3c0,36.5-.1,73,0,109.5,0,14.5,1,28.9,5.1,43s12,24.4,26.4,28.7a48.9,48.9,0,0,0,28.6.2c12-3.4,20.2-11.2,24.8-22.8s6.3-24.1,7-36.6c.3-6.7.3-13.3.3-20V88.4c0-7-.9-6.6,6.9-6.6H1668c5.1,0,5.1,0,5.1,4.8,0,78.1.1,156.2-.1,234.4,0,19.4-1.9,38.6-8.1,57.1-3.6,10.8-8.5,21-16.3,29.5s-20.1,15.9-32.7,19.3a128.4,128.4,0,0,1-71.9-.7c-22-6.7-36.8-21.2-44.9-42.8a142.3,142.3,0,0,1-9-43.3c-.7-14.1-1.1-28.3-1.2-42.4q-.2-104.7,0-209.5c0-6.9-.9-6.4,6.4-6.4h34.5c5.9,0,5.1,0,5.1,5.1Q1535.1,148.6,1535,210.3Z" style="fill:#fff"/><path d="M1032.4,253.9c0,24-.1,48,0,72,.1,12.1.7,24.3,3.6,36.2.3,1.3.6,2.6,1,3.9,5.2,17.8,16.2,26.5,34.8,27.3,4.1.2,8.3.1,12.4-.1,14.6-.9,25.2-8,30-24.3,2.4-8.5,3.1-17.7,3.6-26.6.6-13,.2-26,.3-39,0-4,0-4.1,4-4.1,12.7,0,25.4.1,38,0,2.6-.1,3.9.2,3.9,3.4-.2,18,.4,36-2,53.9a123,123,0,0,1-9.5,34c-8.3,18.7-22.6,30.7-42,36.3a121,121,0,0,1-68.5-.1c-25.7-7.5-41.5-25.3-50-50.2-5.9-16.9-8-34.3-8.1-52.1q-.1-69.4.1-139c0-19.2,2.3-38.1,9-56.4,7.8-21.4,21.7-36.9,43.6-44.3a115.6,115.6,0,0,1,20.3-4.9c18.5-2.6,36.8-2.1,54.9,3.2s33.1,17.9,41.4,36.3a104.9,104.9,0,0,1,9.6,38c.9,14.8.8,29.6,1.1,44.5.1,3.6-.1,3.7-4,3.7h-38c-3.8,0-3.8-.1-3.8-3.9-.1-12.6-.1-25.3-.2-38a90.8,90.8,0,0,0-3.2-23.7c-3.4-11.6-10.4-19.4-22.6-22.1a66.2,66.2,0,0,0-29.7-.2c-14.9,3.3-23.2,13.5-26.3,27.6a153.8,153.8,0,0,0-3.2,28.7c-.4,26.7-.1,53.3-.1,80Z" style="fill:#fff"/><path d="M816.2,254.9V88.4c0-6.8-1-6.6,6.4-6.6h123c4.7,0,4.8,0,4.8,4.6v26.5c0,4.6-.1,4.6-4.8,4.6H869.1c-4.3,0-4.3,0-4.3,4.5V227.6c.1,4.1.1,4.1,4.2,4.1h41.5c6.7,0,13.3.1,20-.1,2.8,0,3.7,1.1,3.6,3.8-.1,9,0,18,0,27,0,3.7-.1,3.7-4,3.7h-56c-1.7,0-3.4-.1-5,0-4.3,0-4.3,0-4.3,4.5V388.3c0,4.7,0,4.7,5.1,4.7h78.5c2-.1,3,.7,3,2.9-.1,9.7,0,19.3,0,29,0,2-.7,3.2-2.9,3H820c-3.6-.1-3.6-.1-3.8-3.5V254.9Z" style="fill:#fff"/><path d="M729,273.2V420.6c0,1.2,0,2.4-.1,3.5,0,3.7,0,3.8-3.9,3.8H685c-4,0-4-.1-4.1-4.2V123.8c0-6.3,1.1-6.3-6.1-6.3h-52c-5.1,0-5.2,0-5.2-5.2V85.8c.1-3.9.2-3.9,4-4H784c6.9,0,5.9-.3,5.9,5.8q.1,12.8,0,25.5c0,4.4,0,4.4-4.3,4.4H735.1c-7.2,0-6.1-.5-6.1,6.1C728.9,173.5,729,223.3,729,273.2Z" style="fill:#fff"/></svg>