<svg xmlns="http://www.w3.org/2000/svg" viewBox="0 0 1899 510"><title>Logo</title><path d="M89.6,222.9c.4-51.1,16.2-96.9,48.7-136.5,28.8-35,65.2-58.6,109.3-69.2,56.5-13.4,109.7-4.6,158.7,26.7,32.3,20.7,56.7,48.6,73.9,82.8a211.7,211.7,0,0,1,22.3,86.6,216.2,216.2,0,0,1-9.3,73.7,209.1,209.1,0,0,1-56.4,91.5c-31.8,30.2-69.4,49-112.9,54.7-60.3,7.8-114-8.3-160.5-47.6-28-23.7-48-53.3-60.7-87.7A212.1,212.1,0,0,1,89.6,222.9Zm11,.1a198.1,198.1,0,0,0,7.4,55c10,36.7,28.7,68.2,56.4,94.3s57.9,41.7,93.9,49.1a186.2,186.2,0,0,0,79-.7c38.2-8.6,70.7-27.3,97.7-55.5a199.1,199.1,0,0,0,37.2-54.1c19.4-41.9,24.3-85.6,15-130.7-8.9-42.9-29.5-79.6-62.2-108.9-44.1-39.6-96-56.1-154.8-48.4-46.6,6.1-85.7,27.6-117.1,62.6C118.1,124.7,101.3,170.8,100.6,223Z"/><path d="M228.7,502.9l-11.3-10c19.9-18.9,41.3-34.9,66.4-45.6l-.2-1.2c-2.1-.3-4.2-.8-6.3-.9-11.1-.8-20.6,3.4-29.5,9.5s-15.1,10.8-23,15.7a94.2,94.2,0,0,1-42.9,14.2c-12.5,1-24.2-1.5-35.5-6.5-9.4-4.2-18-9.4-25.4-16.5l-2-2.1c-.2-.2-.3-.5-.2-.4,5.4,2,11,4.6,16.8,6.2,18.7,5.1,36.9,3.4,54.7-4.2,14.1-5.9,28.2-12,42.6-17a97.3,97.3,0,0,1,59.9-1.7c2.2.7,5,0,7.3-.6a99.2,99.2,0,0,1,59.3,2.7c12,4.3,23.7,9.1,35.3,14.3,14.2,6.3,28.8,10.4,44.5,9.2,11.6-.9,22.7-3.6,32.8-9.6l.6.9c-4.8,3.8-9.4,8.1-14.6,11.4-9.9,6.4-20.6,11.3-32.5,13.3s-21.4.8-31.9-1.8c-17.3-4.2-31.8-13.7-45.8-24.1-7.3-5.4-14.9-10.6-24.2-12.1-4.9-.7-10-.3-15.1-.3-.5,0-.9.5-2.2,1.3,12.8,5.7,24.7,11.8,35.5,19.9s20.9,16.5,31.8,25.1c-3,3.2-4.8,5.9-9.2,6s-9-1.8-12.7-5.6c-14.7-14.9-30.1-29-48.5-39.4-5.6-3.1-10.1-3.1-15.7.1C272.9,461.4,260,472,248,483.6,241.5,489.8,235.3,496.3,228.7,502.9Z"/><path d="M23.9,339.1c4.6,5.5,8.8,11.4,13.8,16.5,8.3,8.4,18.6,13.8,29,19.2s22.9,11.3,34,17.6c6,3.4,11.2,8.2,16.8,12.3,2.3,1.7,4.8,3.3,7.3,4.9a15.7,15.7,0,0,0,3,1.2l.5-.7a21.9,21.9,0,0,0-2-2.2c-7.5-7.2-14.7-14.6-19.6-24s-6.5-17-8.2-26.1c-2.5-13-5-25.9-7.6-38.9a32,32,0,0,0-1.8-5.2l.6-.4,7.9,10.1c10.6,13.8,17.9,29.2,23.4,45.6a269.4,269.4,0,0,0,13.6,33.9c3.3,6.8,8.8,12.5,13.4,18.7a20,20,0,0,0,2.2,2.4c-4.1-.9-7.4-1.8-10.8-2.4-10.3-2-20.5-4.1-30.7-5.7-23.3-3.8-41.9-15.9-58-32.4-11.4-11.7-20.5-24.9-25.4-40.6-.4-1.4-.7-2.8-1.1-4.2Z"/><path d="M440.7,424c3.2-3.7,6.4-7.1,9.3-10.8,7.5-9.9,11.9-21.4,16.1-33s8.6-24.1,13.8-35.7,13.6-21.8,21.6-31.9c-1.6,6.4-3.5,12.6-4.8,19-1.7,8.3-3.2,16.6-4.3,25-2.8,20.2-11.8,37-27.2,50.4-1,.9-1.9,2-2.9,3l.6.9a20.7,20.7,0,0,0,3.4-1.5c4.9-3.5,9.7-6.9,14.4-10.6,10.6-8.3,22.7-14.1,34.8-19.9s23-11.1,33.1-19.2a69.4,69.4,0,0,0,17.5-21l.6.3c-1.6,4.4-2.9,9-4.9,13.2-7.5,16.9-19.4,30.3-33.5,42-10.9,9-22.8,16.2-36.7,19.4-10.7,2.4-21.6,4.2-32.3,6.4-5.5,1.1-10.9,2.4-16.3,3.6Z"/><path d="M5,262.4c2.9,13.4,10.8,23.9,19.8,33.6,6.2,6.8,12.7,13.3,19.2,19.8,8.2,8.4,14.9,17.8,21.1,27.7,1.6,2.4,3.5,4.7,5.3,7a20.3,20.3,0,0,0,2.3,1.8l.9-.5a32.3,32.3,0,0,0-2-4.2c-6.3-10-8.9-21-10-32.6s1.7-23.1,4-34.4c1.8-8.4,3.4-16.8,2.7-25.5a1.7,1.7,0,0,1,.1-1l.8-.2c1.7,6.1,3.7,12.2,5.2,18.4,3.6,15.7,4.5,31.8,6,47.8,1.2,13.1,2.3,26.3,6,38.9,1.6,5.4,4.5,10.4,6.8,15.6l1.5,3.5c-20.8-15-43.2-26.1-61.2-43.8C19.4,320.5,9,304.7,6.1,284.8,5,277.5,4.5,270,3.8,262.6Z"/><path d="M130.4,371.9c7.5,6.4,15.2,12.7,22.6,19.4,9.6,8.7,18.9,17.8,28.3,26.7s23.9,15.7,38,19.2a22.6,22.6,0,0,1,5.8,2.1c-2.4.3-4.8.3-7.1.8l-29.7,7.4c-16.7,4.2-33.5,7.2-50.7,5.6s-34-9-48.1-20.3a91.4,91.4,0,0,1-20.3-22.9,116.8,116.8,0,0,0,9.8,7.5c10.4,7.1,22.2,10.4,34.5,12,9.6,1.2,19.2,1.9,28.8,2.6,13.2,1,26.4,1.9,39.3,5.2a49.2,49.2,0,0,0,8.6.9l.5-1.2a11.1,11.1,0,0,0-2.7-1.7c-3.8-1.2-7.8-2-11.5-3.3-11.7-4.3-20.3-12.4-26.4-23s-11-20.2-16.5-30.3c-1.2-2.1-2.5-4.1-3.8-6.1Z"/><path d="M586.9,262.7c-.8,7.4-1.1,14.9-2.2,22.3-3.8,24-17.5,42.2-36,56.7-13.2,10.3-27.6,19.1-41.4,28.6L496,377.9c1.4-2.8,2.4-5.1,3.7-7.3,5.2-9.4,7.1-19.8,8.4-30.2,2.1-17.4,3.2-35,5.6-52.4,1.5-10.5,4.7-20.8,7.1-31.2a10,10,0,0,1,1-2.1h.7c0,3.8-.4,7.7.1,11.4,1.5,9.2,3.5,18.4,5.1,27.6,3.5,19.1,1.4,37.4-8.9,54.3a39.7,39.7,0,0,0-1.7,3.6l.7.7a10.9,10.9,0,0,0,2.6-2.1,82,82,0,0,0,7.1-9.6c7-11.8,16.2-21.7,25.7-31.5,7.2-7.4,14.2-15,20.9-23a54.5,54.5,0,0,0,11.6-23.6Z"/><path d="M520.6,410.6A75.4,75.4,0,0,1,504.4,430c-11.7,10.1-24.8,17.6-40,21.2-11.6,2.8-23.3,2.8-35.2,1.4-17.9-2.1-35.2-7.6-52.7-11.8-3.5-.8-7.2-1.1-11-2.1l5.7-1.4A88.2,88.2,0,0,0,414.8,413c10.1-10.2,20.9-19.7,31.5-29.4,4-3.6,8.4-6.7,12.6-10.1l1.8-.8C453,386.5,446,400,438,412.9s-18,18.5-31.4,21.3a22.4,22.4,0,0,0-5,1.6c-.5.2-.9.8-1.3,1.3s1.1.9,1.6.9a71.7,71.7,0,0,0,8.1-1.1c12.2-2.9,24.6-4,37.1-4.7,14.5-.9,29.1-1.6,43.2-5.3,10.7-2.8,20.6-7.5,28.8-15.1Z"/><path d="M42.5,282.7a7.6,7.6,0,0,0,.1-2.1c-5.5-18.5-1.2-35.8,7-52.4,3.9-7.9,8.9-15.3,13.1-23.2,3-5.7,5.6-11.6,8.2-17.2l.2,1.2a153.3,153.3,0,0,1-4.8,38.8c-3.7,15.6-8.1,31.1-12.7,46.5a78.3,78.3,0,0,0-2.1,33l.3,2.9c-4.7-6.4-9.3-12.7-14.1-19-6.1-7.9-12.4-15.6-18.3-23.6-7.3-9.8-10.2-21.5-12.2-33.2a213.3,213.3,0,0,1-2.8-27.6c-.4-10.1,2.5-19.9,4.8-29.7a23.6,23.6,0,0,1,1.2-2.6c0,4-.1,7.4,0,10.7.6,11.7,4.8,22.4,9.3,33.1s9.2,20.7,13,31.3c2.6,7.5,3.6,15.6,5.4,23.3.6,2.5,1.3,4.9,2.1,7.3a22.4,22.4,0,0,0,1.3,2.7Z"/><path d="M580.9,175.4c2.4,9,4.9,18.4,5.4,28.3a131.8,131.8,0,0,1-8.1,50.6c-2.7,7.2-7.3,14-11.9,20.3-7.4,10.2-15.5,19.9-23.3,29.9a64.3,64.3,0,0,0-3.9,6.3c.3-5,.7-9.2.9-13.5.5-8.9-1.2-17.4-3.7-25.9-4-13.2-8-26.5-11.2-39.9s-5.4-27.6-5.5-41.7c0-.8.1-1.6.1-2.3s.3-.3.7-.7c2.1,12,9.7,21,15.3,31.1s11.6,22.6,13.8,35.2a62.6,62.6,0,0,1-.5,24.4,13.2,13.2,0,0,0-.2,2.8l1,.4a17.3,17.3,0,0,0,1.7-3.3c1.4-5.5,2.7-11,3.7-16.6,2-11.3,6.4-21.8,11.2-32.2s10.4-21.7,12.5-33.7C580.1,188.4,580.3,181.7,580.9,175.4Z"/><path d="M38.3,204c.4-2.5,1-5,1.4-7.6,1.6-12.3,7.5-22.5,15.7-31.4,6.5-7.1,13.6-13.5,20.3-20.3,4-4,7.8-8.2,11.5-12.1l-.5,2.5c-.2,1.2-.4,2.3-.7,3.5-3.2,14.8-10.3,27.8-18.9,40.2-7.2,10.5-14.6,20.8-21,31.7-3.8,6.4-5.8,13.8-8.6,20.8l-.5,1.1c-1.3-5.2-2.1-10.2-3.7-15.1-3.6-11.3-7.9-22.4-11.4-33.7-8.8-28.7-3.5-55.1,12.9-79.7a54.7,54.7,0,0,1,4.1-5.4c-1,3.2-2.1,6.5-3,9.7-1.9,7.7-1.8,15.5-1.1,23.3,1.1,12.1,3,24,3.7,36.1.4,7.8-.8,15.8-1.3,23.6-.2,3.5-.6,7-.8,10.5a5.9,5.9,0,0,0,.7,2.5Z"/><path d="M552.3,98.8c1.2,1.6,2.3,3.3,3.4,4.9,8.4,12.6,14.4,26.2,16.5,41.2a87.9,87.9,0,0,1-3.8,40.1c-3.9,11.8-8,23.4-11.9,35.2-1,3.2-1.4,6.7-2.1,10-.1.6-.3,1.2-.4,1.6-2.4-5.8-4-12.1-7.2-17.4-6.6-11.2-13.9-21.9-21.2-32.7s-15.4-23.3-19.2-36.9c-1.1-4.1-2.1-8.3-2.9-12.5,8.1,11.2,19.4,19,28.6,29,7.5,8.2,14.2,16.9,17.3,27.8,1.2,4.3,1.8,8.7,2.7,13.1.2.7.9,1.2,1.4,1.8a6.8,6.8,0,0,0,.9-2.2c-.8-10.4-1.9-20.8-2.3-31.2-.2-5.7.6-11.5,1.2-17.2,1.4-12.3,3.9-24.5,2.7-37-.4-4.8-1.9-9.5-3-14.2-.2-1.1-.8-2.1-1.1-3.2Z"/><path d="M46.7,162c-.5-10.7-.8-21.8-1.6-32.9a107.2,107.2,0,0,1,1.5-27.7c3.9-21,16.9-34.6,36.1-43.1L80.8,60l-2,2.1c-6.9,7.5-10.5,16.7-12.6,26.4-3.2,15.2-6.2,30.3-12,44.8a19.7,19.7,0,0,0-.7,3.5l.8.4a13.7,13.7,0,0,0,1.6-1.8c6.3-13.3,16.9-22.7,28.7-31,8.1-5.6,16.3-11.2,22.5-19.1a91.6,91.6,0,0,1,5.9-7.5c-.9,3.5-1.5,7.1-2.6,10.5C106.7,100,99.8,109.7,91,117.9s-17.7,15.4-26.6,23a74.1,74.1,0,0,0-17.3,20.5C46.9,161.8,46.5,162.1,46.7,162Z"/><path d="M478,77.5c7.8,14.7,22,22.2,34.4,31.6,9.2,7.1,17,15.3,22.1,25.8a9.7,9.7,0,0,0,1.9,2.2l.9-.4a43.7,43.7,0,0,0-1.2-4.9c-5.1-13-8.1-26.6-10.8-40.2s-6.8-24.5-17-33.3c6.7,2.2,12.3,6.2,17.5,10.8,13.3,11.6,19.2,26.6,19.6,43.8.3,11.9-.7,23.9-1.1,35.9-.1,4.5,0,8.9,0,13.2-2.3-3.3-4.6-6.8-7.2-10.2-5.8-7.7-13.5-13.2-21-19.1-10.3-8.2-19.8-17-27.4-27.9A65.5,65.5,0,0,1,478,79.1,8.6,8.6,0,0,1,478,77.5Z"/><path d="M71.9,103.7c1.2-3.6,2.2-6.7,3.3-9.8,2.1-6.6,4-13.3,6.5-19.7C87,61,96.5,51.1,108.6,44.2c9.2-5.3,19.3-9.3,29-13.8.1-.1.3,0,.9.1-2,2.1-4,3.9-5.6,5.9-7,9-14.4,17.8-20.8,27.2a144.1,144.1,0,0,1-32,33.2C77.4,98.8,74.9,101.1,71.9,103.7Z"/><path d="M518.5,103.3c-5.5-4.6-10.7-9-16.1-13.3a108.1,108.1,0,0,1-21.6-23.7c-8.8-12.5-17.5-25.2-28.5-36.2l9.5,3.8c9.9,4.1,19.5,8.8,28,15.6a61.7,61.7,0,0,1,21.1,29.6C513.5,87,515.9,94.9,518.5,103.3Z"/><path d="M482.5,223.2c-.5,49.3-16.3,93.1-49.2,130.2-26.3,29.7-58.8,49.5-97.7,57.8-52.6,11.3-101.1,1.2-145.2-29.6-26-18.1-45.7-41.8-59.9-70.1a190,190,0,0,1-20.3-77.1c-2.6-54.9,14-103.1,50.9-143.8C188,61.1,221.2,42,260.4,34.4c55.7-10.6,106.1,1.9,150.3,37.1,32.9,26.2,54.3,60.3,65.2,100.9A193,193,0,0,1,482.5,223.2Zm-10,3.7c-.1-16.5-1.3-29.2-3.9-41.8-8-38.7-26.2-72-55.3-98.8-36-33-78.5-48.7-127.5-46.1a162.5,162.5,0,0,0-65.2,17.3c-37.2,18.7-64.5,47-82.4,84.4-16.5,34.4-21.9,70.7-16.4,108.4,6.7,45.7,27,84.3,62.3,114.2,44.8,38,96.4,50.4,153.6,36.9,34-8.1,62.7-26,86.1-51.8C456.3,313.8,471.9,271.3,472.5,226.9Z"/><path d="M154.4,228c-2-49.4,16.8-89.5,54.8-120.6,11.1-9,23.9-15.4,37.1-21,9.7-4.2,19.9-5.7,30.1-7.4,27.1-4.4,53.1.2,77.8,11.7s43.9,28.2,59.2,50.2c8.2,11.7,12.8,24.9,17.5,38.2s5.4,27.3,6.9,41.1c1.1,10.4-1.3,20.4-2.7,30.6a112.5,112.5,0,0,1-15.3,43c-6.3,10.6-12.8,21.3-21.4,30.4-11.2,11.7-24.1,20.9-38.2,28.7-15.9,8.7-33,12.2-50.7,14.4a131.1,131.1,0,0,1-31.3-.2,127.5,127.5,0,0,1-39.1-10.7c-15.5-6.9-28.9-17.2-41.2-28.7a127.5,127.5,0,0,1-36.3-59.3c-2.9-10.1-5-20.5-7.1-30.8C153.9,234.5,154.4,231.2,154.4,228Zm161.9-8.8a18.4,18.4,0,0,0-1.6-1c-3.2-1.3-5.7-3-4.3-7.1a2.7,2.7,0,0,0-1.5-2c-4.2-1.4-6.4-4.1-6.6-8.6a2.7,2.7,0,0,0-1.5-2.4c-2.7-1.1-5.5-1.8-8.3-2.7s-3.7-.1-3.8,2.4c-.1,4.6-2.3,8.1-5.8,11-1.5,1.2-2.6,2.9-4.1,4.1s-2.9,4.7-2.6,7.7a10.8,10.8,0,0,1-.2,4c-.8,2.6-2.3,2.9-4.2,1.1a54.8,54.8,0,0,0-4.4-4c-1.2-.9-2.6-.9-2.5,1.1s-1.2,4.5-3.5,5.7-3.1,2.3-2.3,4.7l2.2.2c2.8-.3,5.6-.8,8.4-.9s4.6.9,5.2,4,1.7,4.4,2.8,6.8c2.5-2.4,4.3-4.5,6.4-6.2,8.7-7.2,5-6.7,14.2-.6.1,0,.1.1.3.4s-1,2.4-1.4,3.7l-1.8,7.6c-.8,3.3-1.4,6.6-2.5,9.8s-3.7,4.4-6.9,4.4c-1.5,0-3-.3-4.4-.3s-3.4-1-3-3.4-2.3-4.9-3.9-7.1c-.2-.3-1.5-.1-2,.3l-14.6,15a40,40,0,0,0,3.2,2.9A79.7,79.7,0,0,0,283.7,281a14.2,14.2,0,0,0,13.1-1.9,78.5,78.5,0,0,1,9.2-5.7c3-1.7,6-2.3,8.9.5a3,3,0,0,0,2.5.8,27.1,27.1,0,0,0,12-9.1c-1.2-2-4.3-3.1-2.1-5.9s3.1-3.3,4.7-5c-2.2-2.9-2.9-3.1-5.9-1.1s-4.4,3.2-6.7,4.8a8.5,8.5,0,0,0-3.9,6.2c-.1.9-.9,2.5-1.4,2.5-2.7,0-5.7.3-7.9-.8s-1-4.3-.4-6.5,1.4-3.8,2-5.8a53.6,53.6,0,0,0,1.6-5.2l-3.5-1.2c-.7,2.9-1.1,5.6-2,8.2-.4,1.1-1.6,1.9-2.4,2.8-1-1.2-2.9-2.4-2.9-3.6.3-6.8,2.3-13.1,8-17.4,1.4-1.1,3.5-1.1,5.2-1.6l.3.7c7.2-6.2,7.5-7.6,2.4-13.8Zm113.3,10-1.5-.4-7.7-.2c-2.6,0-6.1-.8-7.5.6s-.9,4.9-1.1,7.5c-1.6,18.2-8.3,34.7-17.4,50.2-4,6.8-9.6,12.6-14.6,18.7-1.2,1.4-1.3,2.4-.1,3.7l10.7,11.3a83.4,83.4,0,0,0,18.3-21.8C421.3,277.5,429.6,254.8,429.6,229.2ZM162.1,216.9h17.3a171.7,171.7,0,0,1,9.4-42.6c5.1-14.1,14.6-25.1,24.7-35.8l-12.1-13.3C182.9,137.1,156.4,198.7,162.1,216.9ZM430.4,220a7.1,7.1,0,0,0,.2-2.5c-1.6-10.4-2.9-20.9-5-31.2-4.3-20.3-15.7-37-27.7-53.4l-.6-.7-4.4-3.7-13.5,12.7c2.7,1.1,4.7,2.4,6.8,2.6,5,.6,7,2.8,8.3,8,2.5,10.3,6.4,20.3,10.2,30.2,2.8,7.7,5.6,15.2,5.9,23.5a100,100,0,0,0,1.5,12.1c.2.9,1.5,2.3,2.3,2.3C419.6,220.1,424.8,220,430.4,220Zm-269.2,4.7c1.6,35.6,12.1,67.1,37.1,93.3l12.1-12.8c-5.5-8.3-10.8-16.3-16.2-24.2a4.6,4.6,0,0,0-2.9-1.3c-3.3-.3-6.6-.3-9.9-.6a4.5,4.5,0,0,1-2.5-1.2c-2.8-2.8-2.1-5.5,1.7-7.3l7.3-3.3c-4.7-12.4-7.8-24.5-7.7-37.2a14,14,0,0,0-.7-4,2.3,2.3,0,0,0-1.6-1.3Zm57.6-92.1,11.7-8.8a99.7,99.7,0,0,1,39.6-17.3c6.7-1.4,13.5-2.2,20.3-3.1,1.9-.3,2.6-1.1,2.5-3.1-.1-4.3-.1-8.7,0-13.1.1-2.1-.7-2.6-2.6-2.2s-4.8.7-7.2,1c-7.4,1.1-15,1.6-22.2,3.5a127,127,0,0,0-37.7,17c-5.7,3.7-11,8-16.9,12.4Zm70.5,209.8c-28.2-1.9-52.5-12.4-72-31.1L204.1,323c14.5,19.3,58.6,37.2,85.2,37.5V342.4Zm9.2,18c20.3,4.5,74.6-17.5,85.5-34.6l-11.1-11.9-19.7,12.6a3.4,3.4,0,0,0-1.4,2c.1,3.4-2,4.8-4.6,6s-3.4,1.8-5.1,2.9-3.8,1.2-5.2-.9l-1.3-1.5a98.3,98.3,0,0,1-10.6,3.3c-7.8,1.6-15.5,4.1-23.6,3.8-1.5-.1-2.9.1-2.9,2.3C298.6,349.7,298.5,354.9,298.5,360.4ZM231.9,158.7,219,144.5a91,91,0,0,0-23.5,36.8c-3.5,10.3-6.9,20.6-8.1,31.5-.4,3.8.3,4.6,4,4.6l12-.2c2.1,0,3.1-.8,3.3-3.1a82.2,82.2,0,0,1,6.4-25.7C217.5,177.6,221.8,166.8,231.9,158.7ZM373,301.1a24.1,24.1,0,0,0,2.4-2.1,74.3,74.3,0,0,0,6.4-7.3c11.7-16.8,18-35.8,22.1-55.6.5-2.4.1-5,.1-7.6H384.5a68.2,68.2,0,0,1-6.5,30.1c-2.6,5.4-6.2,10.4-9.1,15.7a13.1,13.1,0,0,0-1.8,6c.2,4.3.9,8.7,1.5,13S370,299.2,373,301.1Zm-134.6-7.6a4.3,4.3,0,0,0-.2,1.1c-.6,6.6-2.3,7.9-8.7,6.4-3.6-.9-5.8.5-7.3,4.2,18.5,18.6,41.1,27.6,67.6,29.7,0-6.6.1-12.5-.1-18.4,0-.8-1.5-1.9-2.5-2.1-3.4-.8-6.9-1.1-10.3-2-9.9-2.6-19.8-5.3-28.5-11.2C245,298.8,241.8,296.1,238.4,293.5ZM224.2,138.4,237,151.9c9.8-5.4,19.4-10.9,29.1-15.9a36.9,36.9,0,0,1,10.9-3.1c4.3-.8,8.7-.8,13.1-1.3.8-.1,2.1-1,2.2-1.6.2-5.3.2-10.5.2-15.8,0-1.8-.9-2.6-2.8-2.4-4.1.6-8.3.9-12.4,1.5-13.3,2.2-25.5,7.2-37,14C234.8,130.5,229.7,134.5,224.2,138.4Zm162.3-16.1c-17.5-17.5-38.8-27.7-62.2-33.8-7.4-1.9-14.9-3.2-22.7-2.8V97.2c2.3.1,4.7-.4,5.6.5s.3,3.3.7,5,1.2,1.8,1.8,1.8c8.6.1,16.6,2.7,24.4,5.8,6.2,2.5,12.4,5.3,18.5,8.2,2.8,1.3,5.3,3.3,8.1,4.9s4.6,3.3,7.2,4.2,3.6,1.6,4.1,4.1,2.2,3.3,4.2,1.4ZM385,220h17.3c.7,0,2-1.1,2-1.7-.4-4.9-.5-9.9-1.5-14.8a121.6,121.6,0,0,0-10.5-31.5c-1.4-2.8-2.8-4.3-5.8-4.1s-4.6-1.3-6.5-3.1a28.5,28.5,0,0,0-6.8-4.7,87.6,87.6,0,0,0-8.7-3.5l-4.2,4.5c1.9,1,3.4,1.6,4.7,2.4s5,3.2,4.9,6.4c-.1,4.8,2,8.1,5.9,10.5a6.8,6.8,0,0,1,2.3,1.8c.9,1.3,2.1,2.6,2.3,4.1C382,197.3,383.5,208.4,385,220ZM300.9,111.8v13.9c0,5.9.1,5.7,5.7,6.7s13.6,1.5,19.9,4.7a7.9,7.9,0,0,0,2.5.5c-1.3-4-.9-5.9,1.1-6.4s6.8,1.2,7.7,4,.8,2.8-5,4.4c1.7.9,3.1,2.1,5.3.8s5.4-1.8,8.6,1.5c-1.7,4.6-1.7,4.6,2.4,7.6,1.1.9,2.2,1.6,3.3,2.4,3.6,2.3,5.2,1.9,7-1.9,1-2.1-1.1-5.8-3.3-6.4a4.4,4.4,0,0,1-2.4-2c-1.3-3.7-2.6-7.4-3.6-11.1s-2.2-5.1-5.5-6.3c-5.1-1.9-9.7-4.9-14.8-6.9A77.1,77.1,0,0,0,300.9,111.8ZM214.3,216.9h16c.6-.1,1.4-1.3,1.5-2,1.8-12.4,5.6-23.9,14.3-33.3,3.3-3.5,3.1-3.8-.1-7.4l-9-9.8C223.9,176.8,213.5,200.7,214.3,216.9Zm28.2-58.4c2.9,3.1,5.3,6.2,8.2,8.8,5,4.8,4,5.2,10,.8s10.9-7,17.3-8.2l11.8-2.5c.9-.2,2.2-1.1,2.2-1.7.2-5.4.1-10.8.1-16.5C273.6,140.5,256.9,145.8,242.5,158.5Zm58.1-11h.1v6.8c-.1,2.1.7,3.3,3.1,3.6a48.4,48.4,0,0,1,22.3,8c3.1,2,6.3,4,9.3,6.1,1.4,1.1,2.4,1,3.5-.2,3-3.2,6-6.4,8.8-9.7a2.9,2.9,0,0,0-.2-2.7c-2.5-2.6-5-5.6-8.1-7.5-11.1-7.3-23.6-11-36.7-12.7-1.5-.2-2.1.4-2.1,1.9S300.6,145.4,300.6,147.5ZM289.7,307.1c1.1-5.8,1.2-5.8-2.5-9.8-1.6-1.8-2.9-4-2-6.3s-.2-3.9-2.7-4.4-3.2-.8-4.8-1.2c-6.7-1.6-12.8-4.2-17.8-9a25.2,25.2,0,0,0-5.1-3.4,2.6,2.6,0,0,0-2.4-.1c-3.1,3.1-6.3,6.3-9.2,9.8s-1.4,4.2,1.1,6,7.8,5.6,11.9,8C266.4,302.9,278.2,304.4,289.7,307.1ZM357.6,277a4.6,4.6,0,0,0,1.2-.9c2.8-4.1,5.8-8,8.3-12.3,5.9-9.9,8.5-20.9,10.1-32.1.1-1.2-.7-3.4-1.1-3.5-4.2-.2-8.3-.1-12.4-.1l-.4,1,5.9,4.7c.7.6,1.5,1.2,1.6,1.9.3,3.2-3,6.6-6.3,7-5.2.6-9.8,2.2-11.5,8.1-.7,2.3-2.4,4.3-3.4,6.5a28.5,28.5,0,0,0-1.4,5c-.6,2.2-.5,4.8-1.6,6.6s-.9,3.2,1,4.5l5.4-3.5c1.6-1.1,2.8-1,3.2,1.3S357.1,274.8,357.6,277ZM209.2,246.2c-.5-3.5-1-6.7-1.4-9.8s-.6-6.3-1.1-9.3c-.2-.8-1.2-1.9-1.9-1.9-5.1-.3-10.2-.4-15.3-.5-1.7-.1-2.5.6-2.4,2.4.3,3.3.1,6.7.8,10,1.5,7.8,3.3,15.6,5.2,23.4a5,5,0,0,0,2.9,3.1c2.4.5,6.6-3.6,7-6s1.2-7.3,1.8-10.8Zm82.3-59.6V164.3c-12.4.3-22.6,5.3-32.1,13.1l16.5,17.9C280.2,190.5,284.4,185.8,291.5,186.6Zm6.3,148.1a30.5,30.5,0,0,0,4.5-.1c6.3-1,12.7-2,19-3.2a66.5,66.5,0,0,0,7.6-2.3c1.6-.6,2.2-2,.8-3.1s-4.1-3.6-6.6-4.4-7.1-2.9-8.9-6.9a3.4,3.4,0,0,0-2.8-1.7,84.9,84.9,0,0,0-10.1,1.6,3.3,3.3,0,0,0-2.2,2.1C298.5,322.6,298.2,328.5,297.8,334.7Zm2.6-148.4c2.5.2,3.8-.5,4.7-2.6a17.5,17.5,0,0,1,3.3-4.4,4.4,4.4,0,0,1,2.9-.9c.4.1.7,1.6,1,2.5s.5,4,1.7,4.9c4,3.5,8.4,3.1,12.2-.8a38.2,38.2,0,0,0,4.5-5.3,3.3,3.3,0,0,0-.2-2.9c-2.6-2-5.1-4.5-8.1-5.6-6.9-2.6-14-4.6-21.4-7C299.5,171.9,299.7,179,300.4,186.3Zm53.7-19.2L344,178.2a1.7,1.7,0,0,0-.3,1.5c1.7,2.4,3.1,6,5.4,6.7s3.4,2.9,4.4,4.9,2.1,3.6,5.2,2.4,5.3-.1,5.9,3.1a3,3,0,0,0,2.2,1.6c1.5,0,3.8-.2,4.4-1.2s1.5-4.3-.6-6.1-3.9-3-5.6-4.7-4.4-3.5-5.6-5.8C357.3,176.5,356,172,354.1,167.1ZM230,237c-.8,6.5-1.6,12.1-2.3,18.2l3.1,1.7c3.7,2.3,4.2,3.7,2.8,7.8-.5,1.7-1,3.3-1.4,5.1-.9,4.9,0,6.2,4.8,8,2.9-3.2,5.9-6.5,8.9-9.6,1.4-1.4,1.3-2.4.4-4-3.6-6.1-7-12.2-10.3-18.4-.8-1.5-1.3-3-3.5-2.8-.4,0-1.1-.9-1.4-1.6S230.5,239,230,237Zm22.4,25.3L264.8,249c.7-.9,1.1-2,1.7-2.9-1-.2-2.2-.7-3.1-.4-3.8,1.3-6.1-.8-8.7-3a46.5,46.5,0,0,0-9.2-5.9c-2.2-1.2-3.6-.4-3.8,2.4C241.1,248.7,247.8,254.6,252.4,262.3Zm-9.8-60.9c4.2-1.6,7.8-2.8,11.2-4.4s3.1-.4,4.2,1.4c2.2,3.6,2.4,3.6,6.3,2a29.4,29.4,0,0,0,3.5-1.8l-14.2-15.8C249.3,188.7,244.1,193.5,242.6,201.4Zm-23.8,49.2c4.7-4.3,4.7-4.3,2.5-8.9-.8-1.7-1.1-3.2.7-4.6a9.5,9.5,0,0,0,2-2.8l5-8.5-13-.7c-1.6,0-2.4.7-2.2,2.4.4,3.9.4,7.8,1.2,11.6S217.4,246.4,218.8,250.6ZM354.5,294a7.7,7.7,0,0,0-.6,2.4c.5,4.6-1.6,8.4-3.4,12.3s-2.1,5.2,2,9.6l14-11.5Zm10.4-74.8,7.5.6c5,.1,5.3-.1,4.7-5-.4-3.3-1.3-6.5-2.1-10.3a94.1,94.1,0,0,1-7.3,6C364.6,212.6,363.2,215.2,364.9,219.2Zm-160.2,64-1.2,1.3c4,5.1,8.1,10.1,12.4,15.5l6-6.8Zm94.8,24,12.7-2c-1.3-1.7-2.1-3.6-3-3.6a99.2,99.2,0,0,0-10.6.7C298.9,304,299.2,305.4,299.5,307.2Zm42.9-116,.6-.8-5.1-6.3-4.7,5.2ZM243,225.3l-.3.6a4.8,4.8,0,0,0-1.7,0,16.6,16.6,0,0,0-2.7,1.3,16.4,16.4,0,0,0,2.6,2,2,2,0,0,0,1.7.1l4.2-2.1Zm89.1,51.1,7.9,2.3.5-.7-4.6-5.1C334.5,274.1,333.5,275,332.1,276.4Z"/><path d="M295.5,45.1c3.3.4,6.7.7,10,1.3.6.1,1.2,1.3,1.5,2.2,1.8,6,3.5,12.1,5.4,18.9,1.3-2.1,2.3-3.7,3.2-5.3,2.3-3.9,4.5-7.9,6.9-11.9.4-.7,1.2-1.6,1.7-1.6a51,51,0,0,1,10.1,1.8l-1.3.7c-1,.8-2.5,1.5-2.6,2.4-1.1,7-2.1,13.9-2.7,20.9-.1,1.3,1.7,2.8,2.9,4.5l-14.1-1.6a3.2,3.2,0,0,0,.2-.9c3.6-.2,4.2-2.5,4.5-5.5.5-5.8,1.4-11.6,1.6-17.6-4.5,7.7-8.9,15.5-13.3,23.2h-1L301,51.3h-.5c-.8,6.5-1.7,12.9-2.1,19.4-.1,1.4,1.9,3,3.1,4.7l-9.6-1.1v-.6c.5-.2.9-.6,1.3-.6,2.1.1,2.9-1.1,3.1-2.8.9-6.7,1.5-13.4,2.5-20C299.2,47.3,296.7,47,295.5,45.1Z"/><path d="M336.6,371.1l-4.2,26.4-1,.2-15.8-20.8-.5.2c1.6,6.3,3,12.7,5,18.8.4,1.4,2.9,2.1,4.7,3.3l-10.2,2.5c.7-1,.9-1.5,1.2-1.6,2.2-.7,2.4-2.2,1.9-4.2-1.4-5.5-2.6-11-4-16.5s-1.2-4.6-5.5-6.4c3.3-.8,6.7-1.8,10.1-2.4.5-.1,1.4.9,1.9,1.6,3.9,5,7.7,10.1,11.9,15.7.9-5.4,1.7-10.2,2.4-14.9.9-6.9.9-6.9,7.6-8.5,1.3-.4,2.7-.6,4-.9s.2.7.1.8c-3,1.5-2.8,3.8-2,6.6,1.5,5.1,2.6,10.2,3.9,15.4s1.1,4.4,5.2,5.7l-13.8,3.5-.8-.8c4.7-1.5,3.3-4.5,2.6-7.4-1.5-5.5-2.8-10.9-4.1-16.4Z"/><path d="M251.5,71.9c.5,2.7,1,5.4,1.4,8.2a2.2,2.2,0,0,1-1,1.2l-22.2,8.4-1.1-.4c4.9-2.1,2.6-5.2,1.5-8-1.7-4.4-3.4-8.8-5-13.2-1.1-2.7-1.5-6.3-6.4-4.5l.2-1.1,23.3-9.1,3.2,8.2-1.2,1a18.1,18.1,0,0,0-1.9-2.9c-2.5-2.7-9.3-2.5-11.7.3a2.4,2.4,0,0,0-.2,1.9c1.1,3,2.3,6,3.4,8.9,3.7-.9,3.9-1.3,5.4-8.3L244.5,76l-.7.8c-2.4-2.9-4.4-6.7-9.2-3.8,1.2,3.2,2.4,6.5,3.8,9.6a2.9,2.9,0,0,0,2.8,1c4.8-1.3,8.2-4.1,8.8-9.4a19.5,19.5,0,0,1,.6-2.3Z"/><path d="M391.9,96.4c2.8-4.4,5.3-8.1,7.5-12,.4-.7-.1-2.1-.4-3.2s-.7-1.1-1.1-1.7l.6-.6,7.8,5,.2.8c-5.8-1.6-6.5,3.3-8.5,6.1-3.8,5.5-7.2,11.1-10.8,16.7h-1c-1.2-9.9-2.4-19.8-3.7-30.7-3.6,5.8-7,10.8-9.9,16-.6,1,.7,3,1.3,5.2l-8.4-5.3V91.5c4.5,2.5,5.6-1,7.3-3.5,2.8-4.3,5.7-8.6,8.3-13.1a6.8,6.8,0,0,0,.7-3.8c0-.9-.5-1.9-.2-3.3,2.3,1.6,4.8,2.9,6.9,4.7s1,2.2,1.1,3.4c.7,6.1,1.3,12.3,1.9,18.4C391.6,94.7,391.7,95.2,391.9,96.4Z"/><path d="M283,388.1c-.1,3.5-.5,6.9-.3,10.3,0,.8,1.7,2,2.7,2.2,4.7.6,8.7-.9,11.2-5.2a13.9,13.9,0,0,1,1.5-1.9l.8.3c-.6,2.7-1.2,5.3-2,8a2.1,2.1,0,0,1-1.7.6l-23.1-.8c-.1,0-.2-.2-.3-.3s2.8-1.5,3.4-2.6.4-3,.4-4.6c.3-5.1.4-10.1.6-15.2s.1-4.2-4.2-6h25.6c-.2,3.3-.3,6.1-.4,8.8l-.7.2-.8-1.8a9.1,9.1,0,0,0-10.8-5.7c-.6.2-1.4.9-1.4,1.5-.3,3.3-.4,6.6-.5,9.8,5.2,1.4,6-2.4,7.8-5.5v14.5l-.8.3C289,391.5,288.4,387.7,283,388.1Z"/><path d="M364.3,60.1l8.4,3.3.3.8c-4.8-.7-5.1,2.8-6.2,5.6s-2.8,7.7-4.5,11.4c-2.8,6.2-7.8,7.9-14.3,5.2s-9.1-7.5-6.7-14c1.4-3.8,2.9-7.6,4.4-11.5s3-5.4-1.5-7.5l.9-.6L358.7,58l.3,1.1c-5.3-1.9-5.8,1.8-6.9,4.8s-3.3,8.3-4.7,12.6.6,8.5,5.8,9c3.2.4,5.4-1.3,6.6-3.9A152.2,152.2,0,0,0,366,65.8C366.4,64.4,365,62.3,364.3,60.1Z"/><path d="M202.6,72.7l12.6,20.1c1,1.6,2.4,2.6,4.4,1.4.4-.3.9-.2,1.7.4l-13.6,8.5c.9-2.2,2.1-3.7,1.9-5s-1.4-3-2.2-4.4L196.6,76.5c-1.5,2.1-3.2,3.7-3.7,5.6s.2,3.8.5,5.7l-.8.4L188,80.7l22.2-14c1.6,2.6,3.2,5,4.7,7.5l-.6.6c-1.7-1-3.3-2.6-5.2-2.9S205.1,72.3,202.6,72.7Z"/><path d="M282,46.7l1.3,9.1-1.4.9a7.6,7.6,0,0,0-.8-2.1,26.5,26.5,0,0,0-4.1-4.1c-5.2-3.8-11-1.5-12,4.8A25.5,25.5,0,0,0,266.7,70c2.6,6,8.1,7.4,13.4,3.4,1.3-1,2.3-2.4,3.5-3.5s1.1-.4,1.7-.7.1,1.4-.2,1.8c-3.6,5.6-8.9,7.6-15.4,6.8a14.2,14.2,0,0,1-11.8-10c-3.6-12.6,5.2-22.4,18.2-20.3C277.7,47.7,279.6,47.1,282,46.7Z"/><path d="M256.2,392.7c-5.3,5.5-12.6,5.7-18.8,1.4s-7.5-11.1-4.6-18.4a14.9,14.9,0,0,1,21.6-7.4l1,.6c3.3,2.1,3.3,2.1,6.8.7-.9,3.6-1.8,6.8-2.7,10.1h-.8c-.4-1.1-.7-2.1-1-3.2-1.2-3.4-2.6-6.5-6.4-7.9a6,6,0,0,0-7.1,1.8,23.7,23.7,0,0,0-5.4,16.9c.3,6,5.2,9,11,7.5,1.4-.4,2.7-1.2,4.1-1.7Z"/><path d="M307.3,269.7c-2.2,3.4-9,5.3-11.1,3.3s-1-3.3-.8-4.9,2-1.9,2.8-1.7C301.2,267.2,304.1,268.5,307.3,269.7Z"/><path d="M280.7,229c1.7,2,3.5,3.1,4.1,4.7s-3.4,3.8-4.9,2.8-1.9-2.7-2.1-4.3S279.3,230.5,280.7,229Z"/><path d="M293.2,226.2l-4.8,4c-.6-1.2-1.7-2.4-1.7-3.6s2-4.9,3.7-4.2S291.9,224.4,293.2,226.2Z"/><path d="M327.2,101.2l-6-.6c-3-.4-6.1-.8-9.1-1s-4.3-2.5-4.4-5.4,1.9-3.3,3.9-3.3,6.9,0,10,1S327.1,96.7,327.2,101.2Z"/><path d="M367.6,114.6a63.8,63.8,0,0,1,6.2,4.9,3,3,0,0,1,.1,2.9,50.3,50.3,0,0,1-4.3,3.5,12.6,12.6,0,0,1-2-2.7C366.7,120.7,365.6,118.1,367.6,114.6Z"/><path d="M312.5,120.6h1.7c1.8.6,4.3.1,4.4,3.2s-1.6,6.5-4.1,7.1c-.2.1-.7.2-.8,0-1.7-2.5-3.7-4.9-4.7-7.7S310.2,120.4,312.5,120.6Z"/><path d="M315.5,176.3l2.4-2.7c1.2,1.7,2.9,3.2,3.4,5s-1,3.1-3.1,3.1S315.5,180.3,315.5,176.3Z"/><path d="M1436.4,254.9c0,10.9-.1,21.9,0,32.9.5,29.5,1.1,59,1.6,88.5.3,15.8.7,31.6.9,47.4.1,4.1,0,4.2-4,4.2h-31c-3.9,0-3.9-.1-4-3.8-.3-15.6-.6-31.3-.8-47-.5-31.3-.8-62.6-1.2-93.9-.3-22-.7-44-1-66-.2-11.1-.4-22.3-.7-33.4a13.1,13.1,0,0,0-.6-2.7,14.8,14.8,0,0,0-1,2.7q-7.3,30.9-14.5,61.8-20.7,88.7-41.4,177.4c-1.2,5.2.1,4.9-6,4.9s-12,0-18,0c-4.2,0-4.3,0-5.2-4.1-4.5-19-8.9-37.9-13.3-56.9q-18.3-79.5-36.8-159.1c-1.7-7.6-3.5-15.2-5.3-22.8a24.6,24.6,0,0,0-.7-2.9,14,14,0,0,0-.9-1.7,13.6,13.6,0,0,0-.4,1.7c-.1,4.7-.1,9.3-.1,14l-1.2,94.5c-.3,22.3-.7,44.6-1,66.9s-.7,44-1,66c-.1,4.3-.1,4.4-4.5,4.4h-31c-4.2,0-4.3,0-4.2-4.5.3-19.4.6-38.9,1-58.4s.7-38.6,1.1-58q.9-39.2,1.7-78.4c.2-9.6.2-19.3.3-29q.9-44.7,1.7-89.4c.2-7.8.2-15.6.3-23.5.1-4.8.1-4.9,5.2-4.9h38c4.4,0,4.4,0,5.4,4.5l22.2,102,33.3,153.2,3.6,16a10.6,10.6,0,0,0,.6,1.9,8,8,0,0,0,1.3-1.9c2.1-9.4,4.1-18.8,6.2-28.2l27.6-125.9,25.5-116.5c1.1-5.1,1.1-5.1,6-5.1h38c4.6,0,4.6,0,4.7,4.7q.6,43.2,1.3,86.4c.4,22.2.9,44.3,1.3,66.5.1,5.1,0,10.3,0,15.5Z"/><path d="M1724,254.7q0-83.4.1-166.9c0-6.3-1-6,5.7-6s15.4.1,23-.1c3.1-.1,4.8.9,6,3.8,15,35.3,30,70.4,45.1,105.6q24.3,56.9,48.7,113.8c.4.9.7,1.8,1.2,2.7a3,3,0,0,0,1.1.7,2.9,2.9,0,0,0,.3-1V88.4c0-7-1-6.6,6.8-6.6h29.5c4.2,0,4.2.1,4.3,4.1V421.3c0,7.5.8,6.6-6.8,6.6s-13.3-.2-20,.1c-3.4.2-4.9-1.1-6.2-4.2q-21.7-52.1-43.7-103.9Q1793.3,259,1767.7,198c-.5-1-.9-2.1-1.5-3.1s-.7-.5-1-.7a2.9,2.9,0,0,0-.2.9v4.5q0,111-.1,222c0,7.2,1,6.3-6.3,6.3-9.9.1-19.7,0-29.5,0-5.6,0-5,.4-5-5.2-.1-18.5-.1-37-.1-55.5Z"/><path d="M1535,210.3c0,36.5-.1,73,0,109.5,0,14.5,1,28.9,5.1,43s12,24.4,26.4,28.7a48.9,48.9,0,0,0,28.6.2c12-3.4,20.2-11.2,24.8-22.8s6.3-24.1,7-36.6c.3-6.7.3-13.3.3-20V88.4c0-7-.9-6.6,6.9-6.6H1668c5.1,0,5.1,0,5.1,4.8,0,78.1.1,156.2-.1,234.4,0,19.4-1.9,38.6-8.1,57.1-3.6,10.8-8.5,21-16.3,29.5s-20.1,15.9-32.7,19.3a128.4,128.4,0,0,1-71.9-.7c-22-6.7-36.8-21.2-44.9-42.8a142.3,142.3,0,0,1-9-43.3c-.7-14.1-1.1-28.3-1.2-42.4q-.2-104.7,0-209.5c0-6.9-.9-6.4,6.4-6.4h34.5c5.9,0,5.1,0,5.1,5.1Q1535.1,148.6,1535,210.3Z"/><path d="M1032.4,253.9c0,24-.1,48,0,72,.1,12.1.7,24.3,3.6,36.2.3,1.3.6,2.6,1,3.9,5.2,17.8,16.2,26.5,34.8,27.3,4.1.2,8.3.1,12.4-.1,14.6-.9,25.2-8,30-24.3,2.4-8.5,3.1-17.7,3.6-26.6.6-13,.2-26,.3-39,0-4,0-4.1,4-4.1,12.7,0,25.4.1,38,0,2.6-.1,3.9.2,3.9,3.4-.2,18,.4,36-2,53.9a123,123,0,0,1-9.5,34c-8.3,18.7-22.6,30.7-42,36.3a121,121,0,0,1-68.5-.1c-25.7-7.5-41.5-25.3-50-50.2-5.9-16.9-8-34.3-8.1-52.1q-.1-69.4.1-139c0-19.2,2.3-38.1,9-56.4,7.8-21.4,21.7-36.9,43.6-44.3a115.6,115.6,0,0,1,20.3-4.9c18.5-2.6,36.8-2.1,54.9,3.2s33.1,17.9,41.4,36.3a104.9,104.9,0,0,1,9.6,38c.9,14.8.8,29.6,1.1,44.5.1,3.6-.1,3.7-4,3.7h-38c-3.8,0-3.8-.1-3.8-3.9-.1-12.6-.1-25.3-.2-38a90.8,90.8,0,0,0-3.2-23.7c-3.4-11.6-10.4-19.4-22.6-22.1a66.2,66.2,0,0,0-29.7-.2c-14.9,3.3-23.2,13.5-26.3,27.6a153.8,153.8,0,0,0-3.2,28.7c-.4,26.7-.1,53.3-.1,80Z"/><path d="M816.2,254.9V88.4c0-6.8-1-6.6,6.4-6.6h123c4.7,0,4.8,0,4.8,4.6v26.5c0,4.6-.1,4.6-4.8,4.6H869.1c-4.3,0-4.3,0-4.3,4.5V227.6c.1,4.1.1,4.1,4.2,4.1h41.5c6.7,0,13.3.1,20-.1,2.8,0,3.7,1.1,3.6,3.8-.1,9,0,18,0,27,0,3.7-.1,3.7-4,3.7h-56c-1.7,0-3.4-.1-5,0-4.3,0-4.3,0-4.3,4.5V388.3c0,4.7,0,4.7,5.1,4.7h78.5c2-.1,3,.7,3,2.9-.1,9.7,0,19.3,0,29,0,2-.7,3.2-2.9,3H820c-3.6-.1-3.6-.1-3.8-3.5V254.9Z"/><path d="M729,273.2V420.6c0,1.2,0,2.4-.1,3.5,0,3.7,0,3.8-3.9,3.8H685c-4,0-4-.1-4.1-4.2V123.8c0-6.3,1.1-6.3-6.1-6.3h-52c-5.1,0-5.2,0-5.2-5.2V85.8c.1-3.9.2-3.9,4-4H784c6.9,0,5.9-.3,5.9,5.8q.1,12.8,0,25.5c0,4.4,0,4.4-4.3,4.4H735.1c-7.2,0-6.1-.5-6.1,6.1C728.9,173.5,729,223.3,729,273.2Z"/></svg>